<svg width="288" height="64" viewBox="0 0 288 56" fill="none" xmlns="http://www.w3.org/2000/svg">
<path d="M59.6445 54.6484H287.869" stroke="white" stroke-width="0.5" stroke-miterlimit="10"/>
<path d="M185.588 47.2398V52.0943H177.105V47.2398C177.105 47.1975 177.105 47.1552 177.111 47.1129C177.174 44.8178 179.046 42.9775 181.35 42.9775C183.648 42.9775 185.525 44.8178 185.588 47.1129C185.588 47.1552 185.588 47.1975 185.588 47.2398Z" stroke="white" stroke-width="0.5" stroke-miterlimit="10"/>
<path d="M185.59 47.1123V47.2392C185.59 47.1969 185.59 47.1546 185.59 47.1123Z" stroke="white" stroke-width="0.5" stroke-miterlimit="10"/>
<path d="M200.168 47.2398V52.0943H191.686V47.2398C191.686 44.8866 193.584 42.9775 195.924 42.9775C198.265 42.9775 200.168 44.8813 200.168 47.2398Z" stroke="white" stroke-width="0.5" stroke-miterlimit="10"/>
<path d="M255.357 47.4669V52.3955H246.879V47.4669C246.916 45.1454 248.798 43.2734 251.118 43.2734C253.437 43.2734 255.32 45.1454 255.357 47.4669Z" stroke="white" stroke-width="0.5" stroke-miterlimit="10"/>
<path d="M267.784 47.5406V52.3951H259.301V47.5406C259.301 45.1873 261.199 43.2783 263.54 43.2783C265.88 43.2783 267.784 45.1873 267.784 47.5406Z" stroke="white" stroke-width="0.5" stroke-miterlimit="10"/>
<path d="M229.192 46.156V54.5641H217.633V46.156C217.633 46.1084 217.633 46.0661 217.638 46.0185C217.706 42.8773 220.268 40.3496 223.413 40.3496C226.558 40.3496 229.113 42.8773 229.187 46.0185C229.192 46.0608 229.192 46.1084 229.192 46.156Z" stroke="white" stroke-width="0.5" stroke-miterlimit="10"/>
<path d="M217.633 46.0176C217.633 46.0652 217.633 46.1075 217.633 46.1551V46.0176Z" stroke="white" stroke-width="0.5" stroke-miterlimit="10"/>
<path d="M229.191 46.0176V46.1551C229.191 46.1075 229.191 46.0599 229.191 46.0176Z" stroke="white" stroke-width="0.5" stroke-miterlimit="10"/>
<path d="M210.57 43.2734V51.9671H205.121V43.2734C205.121 41.7557 206.341 40.5342 207.845 40.5342C209.349 40.5342 210.57 41.761 210.57 43.2734Z" stroke="white" stroke-width="0.5" stroke-miterlimit="10"/>
<path d="M173 47.1127V52.0941H170.328V47.1127C170.328 46.3724 170.928 45.7695 171.664 45.7695C172.405 45.7695 173 46.3671 173 47.1127Z" stroke="white" stroke-width="0.5" stroke-miterlimit="10"/>
<path d="M274.948 47.5033V52.4848H272.281V47.5033C272.281 46.763 272.876 46.1602 273.612 46.1602C274.348 46.1654 274.948 46.763 274.948 47.5033Z" stroke="white" stroke-width="0.5" stroke-miterlimit="10"/>
<path d="M241.515 43.1777V51.8714H236.066V43.1777C236.066 41.6653 237.287 40.4385 238.791 40.4385C240.289 40.4385 241.515 41.6706 241.515 43.1777Z" stroke="white" stroke-width="0.5" stroke-miterlimit="10"/>
<path d="M211.113 55.0872V32.0098H235.416V55.0872" stroke="white" stroke-width="0.5" stroke-miterlimit="10"/>
<path d="M235.41 28.2871H211.113V31.3278H235.41V28.2871Z" stroke="white" stroke-width="0.5" stroke-miterlimit="10"/>
<path d="M214.656 54.5638V38.5566H231.096V55.0874" stroke="white" stroke-width="0.5" stroke-miterlimit="10"/>
<path d="M200.525 55.0874V28.2871H204.17V34.6699H211.112" stroke="white" stroke-width="0.5" stroke-miterlimit="10"/>
<path d="M246.879 55.0874V28.2871H243.071V35.0401H235.414" stroke="white" stroke-width="0.5" stroke-miterlimit="10"/>
<path d="M166.283 55.0866V33.6221H200.525" stroke="white" stroke-width="0.5" stroke-miterlimit="10"/>
<path d="M279.349 54.5631V33.6221H246.879" stroke="white" stroke-width="0.5" stroke-miterlimit="10"/>
<path d="M115.7 54.1615C115.674 53.6379 116.011 47.6148 115.968 47.0912C115.937 46.7475 115.911 46.4038 115.884 46.0548C115.826 45.3937 115.737 44.738 115.627 44.0876C115.506 43.3631 115.353 42.6439 115.169 41.9353C114.89 40.8354 114.554 39.7513 114.159 38.6831C113.844 37.8211 113.491 36.9697 113.118 36.1289C112.976 35.8116 112.823 35.4996 112.676 35.1876C112.655 35.14 112.618 35.0977 112.629 35.0237C112.739 35.0607 112.808 35.1506 112.892 35.2141C113.029 35.3198 113.155 35.4362 113.297 35.5367C113.36 35.5843 113.439 35.6477 113.523 35.6001C113.618 35.5472 113.586 35.4415 113.57 35.3569C113.539 35.1824 113.497 35.0078 113.46 34.8333C113.444 34.7699 113.428 34.7064 113.444 34.6377C113.523 34.6165 113.528 34.6906 113.555 34.7276C113.828 35.1136 114.054 35.5261 114.291 35.9333C114.359 36.0443 114.422 36.1607 114.496 36.2717C114.522 36.3193 114.559 36.3563 114.596 36.3986C114.627 36.4409 114.669 36.4356 114.712 36.4251C114.748 36.4145 114.764 36.3775 114.759 36.3405C114.754 36.2558 114.759 36.1712 114.748 36.0919C114.722 35.9015 114.69 35.7165 114.701 35.5155C114.769 35.5895 114.769 35.6794 114.796 35.7588C114.922 36.1871 115.043 36.6207 115.164 37.0491C115.18 37.1019 115.195 37.1548 115.216 37.2024C115.232 37.2341 115.258 37.2606 115.301 37.2606C115.348 37.2606 115.358 37.2183 115.364 37.1866C115.374 37.1284 115.379 37.0702 115.379 37.0068C115.379 36.7424 115.379 36.4779 115.379 36.2135C115.379 36.1501 115.364 36.0813 115.427 36.0337C115.495 36.0496 115.495 36.1131 115.506 36.1607C115.632 36.6419 115.753 37.1178 115.879 37.599C115.905 37.6889 115.932 37.7841 115.958 37.874C115.974 37.9216 116 37.9639 116.058 37.9639C116.121 37.9692 116.163 37.9269 116.179 37.874C116.216 37.763 116.242 37.6413 116.273 37.5303C116.305 37.4034 116.337 37.2765 116.368 37.1495C116.384 37.0861 116.405 37.0226 116.463 36.9697C116.531 37.0173 116.542 37.0861 116.552 37.1548C116.636 37.599 116.715 38.0485 116.747 38.498C116.757 38.699 116.784 38.8999 116.805 39.1009C116.81 39.1643 116.831 39.2225 116.899 39.2331C116.983 39.2489 117.015 39.1908 117.036 39.122C117.089 38.9634 117.146 38.8047 117.204 38.6514C117.236 38.572 117.273 38.498 117.299 38.4187C117.32 38.3711 117.341 38.3235 117.394 38.3288C117.452 38.3288 117.467 38.387 117.478 38.4293C117.53 38.6725 117.583 38.9211 117.62 39.1696C117.678 39.5609 117.72 39.9523 117.772 40.3383C117.778 40.3753 117.783 40.4123 117.793 40.444C117.809 40.4916 117.83 40.5287 117.888 40.5339C117.941 40.5339 117.983 40.5181 118.009 40.4705C118.041 40.407 118.062 40.3383 118.088 40.2695C118.172 40.0474 118.24 39.8148 118.346 39.5979C118.419 39.6244 118.419 39.6878 118.435 39.7407C118.524 40.0897 118.598 40.4388 118.64 40.7931C118.687 41.2108 118.729 41.6339 118.772 42.0569C118.772 42.0728 118.772 42.0939 118.777 42.1098C118.782 42.1363 118.798 42.1521 118.824 42.1521C118.856 42.1521 118.882 42.1521 118.892 42.1098C118.914 42.0146 118.94 41.9247 118.95 41.8295C119.003 41.38 119.05 40.9306 119.082 40.4758C119.103 40.1321 119.103 39.7936 119.098 39.4552C119.092 38.7043 118.987 37.9692 118.745 37.2553C118.451 36.3775 117.983 35.6107 117.331 34.955C116.631 34.2464 115.8 33.7704 114.832 33.5377C114.69 33.5007 114.543 33.4743 114.396 33.4478C114.28 33.4214 114.175 33.3738 114.091 33.2522C114.233 33.2416 114.349 33.268 114.459 33.2839C114.685 33.3104 114.901 33.3685 115.132 33.3632C115.164 33.3632 115.211 33.3791 115.227 33.3421C115.248 33.3051 115.232 33.2628 115.206 33.2257C115.169 33.1887 115.132 33.1464 115.085 33.0935C115.232 33.0565 115.369 33.0882 115.495 33.0988C115.837 33.1253 116.179 33.1676 116.526 33.194C116.626 33.2046 116.726 33.2099 116.826 33.1676C116.905 33.1358 116.952 33.0935 116.905 33.0036C116.868 32.9349 116.899 32.9137 116.962 32.8926C117.11 32.8503 117.246 32.9137 117.304 33.0512C117.362 33.1993 117.399 33.3579 117.478 33.5007C117.499 33.5377 117.515 33.58 117.536 33.6118C117.588 33.6858 117.651 33.6752 117.678 33.5906C117.714 33.4743 117.709 33.3527 117.714 33.2363C117.725 32.9719 117.72 32.9772 117.972 33.0301C118.251 33.0935 118.53 33.1517 118.808 33.2046C118.892 33.2205 119.003 33.2575 119.056 33.1729C119.119 33.0777 119.008 33.0142 118.961 32.9455C118.908 32.8609 118.808 32.8133 118.772 32.6969C118.919 32.7128 119.045 32.7763 119.176 32.8186C119.618 32.9666 120.049 33.1306 120.481 33.3104C120.544 33.3368 120.612 33.3685 120.686 33.3579C120.802 33.3421 120.833 33.2892 120.775 33.1887C120.717 33.083 120.644 32.9878 120.575 32.8926C120.512 32.808 120.449 32.7234 120.402 32.6229C120.481 32.5965 120.539 32.6388 120.591 32.6705C120.959 32.8609 121.317 33.0618 121.654 33.2945C121.722 33.3421 121.79 33.3897 121.874 33.4108C121.922 33.3209 121.864 33.2628 121.817 33.2099C121.575 32.9137 121.306 32.6388 121.028 32.3744C120.66 32.0306 120.27 31.7239 119.844 31.4542C119.508 31.2427 119.155 31.0735 118.787 30.9413C118.63 30.8884 118.614 30.8778 118.64 30.7297C118.745 30.1216 118.793 29.5029 118.935 28.8948C119.013 28.9318 119.013 29.0005 119.029 29.064C119.061 29.2015 119.098 29.3442 119.129 29.4817C119.14 29.524 119.15 29.5611 119.176 29.5981C119.245 29.688 119.334 29.688 119.392 29.5928C119.455 29.4923 119.497 29.376 119.529 29.2596C119.702 28.6674 119.844 28.0698 119.997 27.4723C120.034 27.3242 120.071 27.1708 120.16 27.0386C120.228 27.0651 120.234 27.1179 120.244 27.1655C120.281 27.3348 120.318 27.504 120.355 27.6732C120.37 27.7367 120.381 27.8001 120.407 27.8636C120.423 27.9112 120.444 27.964 120.512 27.9693C120.575 27.9746 120.612 27.9323 120.633 27.8847C120.723 27.7049 120.77 27.5146 120.823 27.3242C121.007 26.642 121.18 25.9598 121.364 25.283C121.396 25.156 121.448 25.0344 121.49 24.9075C121.501 24.8758 121.506 24.8335 121.569 24.844C121.601 24.9868 121.606 25.1402 121.617 25.2935C121.627 25.394 121.632 25.4945 121.643 25.595C121.648 25.6637 121.669 25.7272 121.753 25.7377C121.838 25.7536 121.885 25.7113 121.916 25.6373C122.106 25.2301 122.264 24.8123 122.432 24.3946C122.563 24.0667 122.695 23.7388 122.826 23.411C122.853 23.3475 122.868 23.2788 122.947 23.247C122.995 23.2946 122.979 23.3422 122.979 23.3898C122.958 23.6436 122.974 23.8922 122.968 24.146C122.968 24.1936 122.953 24.2465 123.01 24.2729C123.073 24.2994 123.11 24.2518 123.147 24.2148C123.252 24.0826 123.315 23.9239 123.394 23.7758C123.62 23.3422 123.836 22.898 124.057 22.4644C124.099 22.3798 124.152 22.3005 124.204 22.2158C124.22 22.1894 124.241 22.1471 124.288 22.1735C124.315 22.311 124.262 22.4432 124.267 22.5807C124.267 22.6177 124.257 22.6548 124.262 22.6865C124.267 22.8134 124.346 22.861 124.457 22.8028C124.536 22.7605 124.604 22.7024 124.662 22.6336C124.772 22.5067 124.888 22.3851 125.004 22.2634C125.019 22.2476 125.04 22.237 125.077 22.2053C125.109 22.348 125.061 22.475 125.046 22.5966C124.967 23.1307 124.898 23.6701 124.835 24.2095C124.777 24.7171 124.73 25.2301 124.693 25.743C124.656 26.2031 124.62 26.6579 124.588 27.1179C124.557 27.5093 124.536 27.9059 124.514 28.2972C124.488 28.826 124.467 29.3601 124.441 29.8889C124.425 30.2697 124.42 30.6557 124.404 31.0365C124.357 32.2051 124.372 33.3738 124.372 34.5425C124.372 34.8122 124.372 35.0819 124.383 35.3516C124.404 35.9174 124.42 36.4885 124.457 37.0544C124.488 37.562 124.525 38.0644 124.562 38.572C124.63 39.471 124.73 40.3647 124.846 41.2584C124.962 42.1363 125.082 43.0088 125.235 43.8761C125.377 44.6957 126.813 51.0045 126.981 51.8188C127.176 52.7601 127.396 53.7014 127.623 54.6374H130.589C130.51 54.3571 130.436 54.0769 130.357 53.8019C129.968 52.4058 128.322 45.5048 127.975 44.0929C127.707 42.9982 127.454 41.8983 127.228 40.7931C127.007 39.7249 126.813 38.6514 126.639 37.5726C126.534 36.938 126.45 36.2982 126.371 35.6583C126.287 34.9761 126.213 34.2939 126.155 33.6118C126.113 33.0988 126.076 32.5859 126.045 32.0782C126.029 31.7662 126.029 31.4542 126.008 31.1475C125.966 30.4865 125.987 29.8308 125.992 29.1697C125.998 28.6039 126.029 28.0328 126.061 27.467C126.087 27.0439 126.103 26.6209 126.134 26.1978C126.166 25.7853 126.182 25.3781 126.218 24.9657C126.239 24.7383 126.25 24.5109 126.266 24.2888C126.308 23.7283 126.36 23.173 126.408 22.6125C126.418 22.5067 126.424 22.4009 126.439 22.2899C126.45 22.2158 126.476 22.2053 126.529 22.2581C126.676 22.3904 126.797 22.5437 126.923 22.6971C127.118 22.9245 127.318 23.1466 127.528 23.3528C127.57 23.3951 127.612 23.4321 127.67 23.4638C127.791 23.5273 127.88 23.4903 127.907 23.3581C127.917 23.3105 127.912 23.2629 127.912 23.2153C127.912 23.1466 127.912 23.0778 127.912 23.0091C127.928 23.0038 127.943 23.0038 127.959 22.9985C128.028 23.1889 128.091 23.3792 128.159 23.5696C128.348 24.1037 128.522 24.6431 128.759 25.1613C128.806 25.2671 128.864 25.3623 128.937 25.4469C129.037 25.5632 129.148 25.5474 129.216 25.4099C129.274 25.2988 129.3 25.1719 129.332 25.0503C129.342 25.0027 129.342 24.9551 129.384 24.9075C129.458 24.9815 129.458 25.0767 129.469 25.1613C129.505 25.4839 129.526 25.8012 129.553 26.1238C129.595 26.6103 129.642 27.0968 129.679 27.5833C129.7 27.8689 129.726 28.1544 129.753 28.44C129.763 28.5299 129.789 28.6145 129.826 28.6991C129.889 28.8366 130.01 28.8525 130.1 28.7308C130.173 28.6356 130.226 28.5299 130.289 28.4294C130.321 28.3818 130.331 28.3184 130.405 28.2919C130.463 28.3924 130.436 28.5034 130.441 28.6039C130.447 28.8842 130.447 29.1645 130.415 29.4447C130.399 29.5875 130.41 29.7303 130.405 29.8731C130.389 30.3278 130.352 30.7826 130.363 31.2374C130.368 31.3326 130.363 31.4278 130.399 31.5177C130.436 31.6234 130.505 31.6446 130.589 31.5706C130.647 31.5177 130.699 31.4595 130.736 31.3908C130.841 31.211 130.946 31.0312 131.052 30.8461C131.083 30.7879 131.12 30.735 131.178 30.6874C131.246 30.735 131.23 30.8038 131.236 30.8672C131.257 31.3114 131.204 31.7504 131.146 32.1893C131.067 32.7974 130.978 33.4055 130.873 34.0137C130.825 34.2781 130.789 34.5425 130.747 34.8122C130.736 34.8862 130.731 34.955 130.741 35.029C130.762 35.1559 130.836 35.1876 130.946 35.1189C131.025 35.0713 131.083 35.0026 131.136 34.9285C131.435 34.516 131.688 34.0771 131.925 33.6276C132.24 33.0142 132.503 32.3796 132.761 31.7451C132.803 31.6446 132.829 31.5335 132.929 31.4384C132.987 31.6287 132.992 31.8085 133.018 31.9883C133.061 32.2845 133.092 32.5806 133.16 32.8714C133.166 32.9032 133.171 32.9296 133.176 32.9613C133.197 33.0301 133.245 33.0671 133.318 33.083C133.392 33.0935 133.434 33.0512 133.465 33.0036C133.555 32.8609 133.613 32.7022 133.66 32.5436C133.86 31.8773 133.991 31.2004 134.07 30.5129C134.133 29.9312 134.123 29.3548 134.128 28.7731C134.128 28.6885 134.128 28.6039 134.139 28.5246C134.16 28.3659 134.186 28.3554 134.307 28.4453C134.386 28.5087 134.47 28.5669 134.549 28.6304C134.675 28.7414 134.807 28.6727 134.817 28.5034C134.822 28.4188 134.822 28.3342 134.817 28.2496C134.812 28.1756 134.843 28.1386 134.922 28.1438C135.075 28.1491 135.233 28.1597 135.385 28.165C135.606 28.1756 135.827 28.1861 136.042 28.202C136.142 28.2073 136.242 28.2179 136.342 28.2655C136.342 28.3448 136.269 28.3659 136.216 28.3977C136.137 28.4506 136.048 28.4929 135.979 28.5563C135.885 28.6356 135.906 28.715 136.032 28.7467C136.1 28.7626 136.169 28.7784 136.242 28.7784C136.542 28.7784 136.837 28.7731 137.136 28.789C137.163 28.789 137.184 28.789 137.21 28.789C137.242 28.789 137.268 28.7996 137.278 28.8366C137.284 28.863 137.268 28.8842 137.247 28.9C137.21 28.9318 137.168 28.9582 137.131 28.9847C137.089 29.0164 137.047 29.0534 137.01 29.0904C136.968 29.1327 136.91 29.175 136.942 29.2385C136.968 29.3019 137.036 29.3125 137.094 29.3125C137.294 29.3125 137.499 29.3178 137.704 29.3072C137.994 29.2914 138.288 29.2967 138.577 29.2967C138.614 29.2967 138.656 29.2914 138.667 29.3337C138.677 29.376 138.64 29.3971 138.609 29.413C138.535 29.45 138.456 29.4817 138.383 29.5188C138.33 29.5452 138.278 29.5769 138.23 29.6087C138.183 29.6404 138.151 29.6933 138.162 29.7461C138.178 29.7937 138.235 29.799 138.283 29.8043C138.667 29.8255 139.056 29.8519 139.44 29.8731C139.545 29.8784 139.645 29.8995 139.75 29.9207C139.74 29.9947 139.687 30 139.645 30.0158C139.545 30.0581 139.445 30.0952 139.345 30.1375C139.293 30.1586 139.245 30.1851 139.25 30.2538C139.256 30.3226 139.314 30.3278 139.361 30.3543C139.435 30.3913 139.529 30.3596 139.608 30.4389C139.471 30.4495 139.345 30.4653 139.224 30.4706C138.33 30.5341 137.478 30.7456 136.663 31.1211C135.801 31.5177 135.043 32.0676 134.365 32.7392C133.597 33.5007 132.987 34.368 132.477 35.3146C132.287 35.6636 132.124 36.0179 131.967 36.3828C131.935 36.4515 131.909 36.5255 131.888 36.5996C131.877 36.6313 131.877 36.6789 131.909 36.7C131.946 36.7265 131.988 36.7159 132.024 36.6895C132.046 36.6683 132.067 36.6472 132.088 36.626C132.366 36.3087 132.629 35.9756 132.929 35.6741C133.024 35.5843 133.113 35.4891 133.208 35.3992C133.239 35.3727 133.271 35.3357 133.318 35.3569C133.371 35.3833 133.345 35.4309 133.334 35.4679C133.308 35.5895 133.276 35.7112 133.245 35.8328C133.224 35.9227 133.229 36.0126 133.229 36.1025C133.229 36.1818 133.276 36.2083 133.35 36.1871C133.434 36.1659 133.497 36.1131 133.555 36.0496C133.807 35.7958 134.039 35.5208 134.281 35.2564C134.402 35.1242 134.523 34.992 134.649 34.8651C134.675 34.8333 134.707 34.8069 134.764 34.8069C134.77 34.9127 134.728 35.0026 134.701 35.0977C134.675 35.1824 134.633 35.2934 134.712 35.3463C134.791 35.3939 134.87 35.3093 134.938 35.2458C135.301 34.8915 135.664 34.5372 136.032 34.1829C136.106 34.1141 136.174 34.0401 136.284 34.0031C136.284 34.093 136.242 34.1565 136.211 34.2252C136.153 34.3468 136.095 34.4632 136.042 34.5795C136.016 34.6377 135.974 34.7064 136.042 34.7593C136.106 34.8122 136.169 34.754 136.221 34.7223C136.305 34.6641 136.384 34.6007 136.463 34.5372C136.763 34.2834 137.063 34.0295 137.368 33.7757C137.489 33.6752 137.615 33.5748 137.778 33.506C137.794 33.5853 137.757 33.6382 137.731 33.6964C137.683 33.7916 137.641 33.892 137.594 33.9872C137.557 34.0613 137.504 34.1459 137.594 34.2146C137.678 34.2834 137.752 34.2199 137.82 34.1776C137.888 34.13 137.957 34.0824 138.025 34.0348C138.272 33.855 138.514 33.6752 138.761 33.4954C138.809 33.4584 138.856 33.4267 138.94 33.4002C138.893 33.5113 138.851 33.6012 138.819 33.6911C138.772 33.8339 138.819 33.8815 138.967 33.8497C139.098 33.8233 139.214 33.7598 139.324 33.6964C139.382 33.6647 139.429 33.6224 139.498 33.6118C139.519 33.6647 139.482 33.6805 139.461 33.7017C139.235 33.9872 139.014 34.2728 138.788 34.5584C138.719 34.6483 138.656 34.7434 138.614 34.8492C138.588 34.9127 138.572 34.9761 138.625 35.0343C138.677 35.0925 138.735 35.0501 138.788 35.0237C139.035 34.9021 139.277 34.7805 139.524 34.6641C139.571 34.643 139.619 34.5848 139.698 34.6218C139.655 34.7329 139.577 34.8175 139.503 34.8968C138.825 35.6794 138.278 36.5414 137.836 37.4774C137.762 37.636 137.689 37.7894 137.641 37.9586C137.631 38.0009 137.61 38.0379 137.652 38.075C137.694 38.112 137.746 38.1067 137.788 38.0802C137.878 38.0274 137.951 37.9639 138.025 37.8899C138.262 37.6466 138.504 37.4034 138.761 37.1866C138.825 37.1337 138.882 37.0702 138.972 37.0596C138.998 37.1866 138.94 37.287 138.903 37.3928C138.683 37.9798 138.462 38.5668 138.293 39.1696C138.172 39.6032 138.072 40.0369 137.994 40.4758C137.967 40.6186 137.978 40.7613 137.978 40.9041C137.978 40.9517 137.983 41.0046 138.041 41.0205C138.088 41.031 138.13 41.0205 138.172 40.9834C138.257 40.9041 138.325 40.8142 138.383 40.719C138.483 40.5551 138.588 40.3965 138.688 40.2325C138.719 40.1849 138.746 40.1321 138.819 40.1162C138.851 40.1796 138.835 40.2378 138.84 40.296C138.846 40.6926 138.83 41.0892 138.851 41.4858C138.872 41.93 138.93 42.3636 139.003 42.8026C139.066 43.1674 139.145 43.527 139.245 43.8866C139.266 43.9712 139.298 44.0558 139.329 44.1405C139.345 44.1828 139.382 44.2039 139.429 44.1933C139.477 44.1828 139.498 44.151 139.498 44.1034C139.498 44.0611 139.498 44.0188 139.498 43.9765C139.498 43.3261 139.498 42.6809 139.498 42.0305C139.498 41.6709 139.524 41.3166 139.561 40.957C139.561 40.9411 139.566 40.92 139.566 40.9041C139.577 40.8565 139.571 40.7878 139.634 40.7772C139.692 40.7666 139.703 40.8354 139.724 40.8724C139.908 41.2373 140.087 41.6022 140.266 41.967C140.308 42.0516 140.355 42.1363 140.407 42.2156C140.439 42.2632 140.481 42.2949 140.539 42.2843C140.607 42.2685 140.586 42.2103 140.592 42.168C140.623 41.9617 140.576 41.7608 140.56 41.5598C140.518 41.0628 140.465 40.5604 140.423 40.0633C140.418 39.984 140.402 39.8994 140.439 39.8095C140.502 39.8148 140.518 39.8624 140.539 39.8994C140.607 40.0104 140.676 40.1268 140.739 40.2378C140.776 40.3013 140.823 40.3489 140.897 40.3277C140.97 40.3066 140.975 40.2378 140.981 40.1638C140.986 39.6614 140.986 39.159 140.991 38.6514C140.991 38.4927 141.007 38.3341 141.065 38.1702C141.16 38.2283 141.191 38.3235 141.238 38.4028C141.302 38.498 141.354 38.5985 141.417 38.6937C141.449 38.7413 141.496 38.7994 141.565 38.7836C141.628 38.7677 141.654 38.7148 141.67 38.6514C141.728 38.4451 141.728 38.2283 141.743 38.0115C141.78 37.451 141.801 36.8904 141.817 36.3299C141.817 36.2664 141.838 36.203 141.854 36.1236C141.948 36.203 141.938 36.314 141.98 36.3986C142.017 36.4674 142.022 36.5678 142.117 36.5626C142.206 36.5573 142.222 36.4674 142.243 36.388C142.332 36.0972 142.353 35.7905 142.411 35.4944C142.438 35.3621 142.464 35.2247 142.485 35.0925C142.49 35.0554 142.501 35.0237 142.537 35.0026C142.601 35.0449 142.59 35.1189 142.611 35.1771C142.664 35.3093 142.658 35.3093 142.806 35.2881C142.821 35.2881 142.842 35.2881 142.858 35.2934C142.895 35.4944 142.853 35.6847 142.837 35.8804C142.785 36.7847 142.674 37.6836 142.543 38.5826C142.306 40.2219 141.938 41.8295 141.449 43.416C141.012 44.8385 138.283 51.7289 137.715 53.1038C137.504 53.6115 137.289 54.1139 137.073 54.6215H138.625C138.877 53.9552 141.323 47.7893 141.533 47.1124C141.917 45.875 142.248 44.6217 142.522 43.3525C142.858 41.7872 143.116 40.2114 143.311 38.6249C143.416 37.7841 143.489 36.9433 143.542 36.0972C143.573 35.616 143.595 35.1295 143.584 34.643C143.579 34.3944 143.579 34.1459 143.605 33.8815C143.663 33.9079 143.694 33.9502 143.726 33.9872C143.821 34.1141 143.921 34.2464 144.015 34.3786C144.126 34.5319 144.236 34.6906 144.373 34.828C144.494 34.9444 144.578 34.9232 144.62 34.754C144.646 34.6535 144.662 34.5531 144.688 34.4209C144.746 34.5002 144.757 34.5636 144.778 34.6271C144.894 35.0343 144.988 35.4468 145.135 35.8434C145.156 35.9015 145.172 35.9544 145.22 35.9967C145.288 36.0602 145.351 36.0496 145.393 35.9756C145.43 35.9121 145.44 35.8434 145.462 35.7746C145.483 35.7006 145.483 35.6107 145.556 35.5578C145.609 35.616 145.614 35.6741 145.63 35.7323C145.735 36.1078 145.798 36.4885 145.887 36.8693C145.93 37.0544 145.956 37.2447 146.019 37.4245C146.04 37.488 146.066 37.5461 146.145 37.5567C146.229 37.562 146.256 37.4986 146.277 37.4351C146.303 37.3611 146.324 37.287 146.356 37.2183C146.387 37.1601 146.361 37.0385 146.45 37.0491C146.534 37.0544 146.534 37.1707 146.55 37.2394C146.629 37.5726 146.703 37.9057 146.776 38.2336C146.839 38.5139 146.881 38.7994 146.976 39.0691C147.008 39.159 147.039 39.2648 147.155 39.2595C147.25 39.2542 147.271 39.1537 147.302 39.0797C147.339 38.9951 147.344 38.8841 147.439 38.7942C147.476 39.2172 147.518 39.6138 147.549 40.0104C147.57 40.2431 147.576 40.4758 147.591 40.7085C147.597 40.7613 147.607 40.8142 147.623 40.8671C147.66 40.9782 147.728 40.994 147.802 40.9094C147.833 40.8724 147.86 40.8301 147.881 40.7878C147.949 40.645 148.023 40.4969 148.086 40.3489C148.112 40.296 148.128 40.2378 148.186 40.2114C148.223 40.2907 148.233 40.3647 148.233 40.444C148.233 40.7243 148.238 41.0046 148.228 41.2901C148.223 41.4964 148.201 41.7079 148.18 41.9141C148.154 42.168 148.128 42.4218 148.102 42.6756C148.096 42.7285 148.112 42.7761 148.159 42.7973C148.212 42.8184 148.254 42.792 148.286 42.755C148.317 42.7127 148.349 42.6651 148.375 42.6228C148.459 42.48 148.543 42.3319 148.622 42.1838C149.048 41.4012 149.364 40.5815 149.458 39.6878C149.469 39.5874 149.469 39.4869 149.532 39.397C149.595 39.4234 149.606 39.4922 149.643 39.5398C149.695 39.6191 149.748 39.6984 149.8 39.7777C149.837 39.8359 149.879 39.8888 149.958 39.8571C150.021 39.8306 150.021 39.7619 150.021 39.7037C150.021 39.6878 150.021 39.6667 150.021 39.6508C149.995 39.4763 149.969 39.2965 149.937 39.122C149.779 38.3182 149.511 37.5567 149.19 36.8058C149.164 36.7476 149.138 36.6895 149.132 36.6049C149.232 36.6525 149.301 36.7159 149.369 36.7794C149.49 36.8904 149.611 37.0068 149.742 37.1125C149.806 37.1654 149.895 37.2553 149.974 37.1813C150.053 37.1125 149.979 37.012 149.942 36.9327C149.827 36.7159 149.7 36.5044 149.548 36.314C149.217 35.891 148.875 35.4785 148.528 35.0713C148.507 35.0449 148.491 35.0078 148.464 34.9708C148.554 34.9655 148.606 35.0131 148.664 35.0396C148.785 35.0925 148.901 35.1506 149.027 35.1824C149.08 35.1929 149.127 35.1929 149.159 35.1559C149.19 35.1189 149.185 35.066 149.159 35.0184C149.143 34.9867 149.122 34.955 149.096 34.9285C148.959 34.791 148.833 34.6483 148.685 34.5266C148.286 34.1829 147.886 33.8497 147.47 33.5272C147.36 33.4426 147.234 33.3685 147.144 33.2522C147.186 33.2257 147.218 33.2469 147.25 33.2575C147.449 33.3209 147.649 33.3791 147.849 33.4373C147.907 33.4531 147.975 33.4796 148.007 33.4108C148.049 33.3315 147.981 33.2945 147.928 33.2522C147.812 33.1623 147.697 33.0883 147.57 33.0195C147.334 32.8926 147.102 32.771 146.86 32.6388C146.939 32.5647 147.05 32.5647 147.118 32.496C147.197 32.4114 147.118 32.3215 147.102 32.1998C147.407 32.4167 147.686 32.607 147.965 32.8027C148.186 32.956 148.391 33.1306 148.638 33.2416C148.691 33.268 148.738 33.2839 148.785 33.2416C148.838 33.1993 148.843 33.1464 148.822 33.0777C148.78 32.956 148.743 32.8291 148.696 32.6864C148.833 32.7657 148.917 32.8661 149.001 32.9613C149.411 33.4108 149.8 33.8762 150.195 34.3362C150.263 34.4156 150.337 34.479 150.41 34.5531C150.458 34.6007 150.521 34.6112 150.573 34.5848C150.621 34.5636 150.626 34.5055 150.621 34.4579C150.615 34.3838 150.621 34.3151 150.61 34.2411C150.594 34.1512 150.573 34.0613 150.6 33.9502C150.794 34.0718 150.915 34.2358 151.041 34.3944C151.457 34.9179 151.862 35.4468 152.272 35.9756C152.319 36.039 152.377 36.0919 152.44 36.1342C152.524 36.1924 152.603 36.1607 152.624 36.0602C152.635 36.002 152.619 35.9386 152.635 35.8804C152.651 35.8011 152.598 35.6794 152.688 35.653C152.766 35.6318 152.819 35.7376 152.866 35.8064C153.129 36.1765 153.382 36.552 153.618 36.9433C153.85 37.324 154.092 37.7048 154.328 38.0855C154.376 38.1596 154.423 38.2389 154.528 38.2495C154.581 38.1649 154.565 38.0802 154.544 37.9904C154.444 37.5303 154.328 37.0702 154.207 36.6154C153.96 35.7006 153.618 34.8228 153.129 34.0084C152.956 33.7228 152.761 33.4531 152.572 33.1729C152.546 33.1306 152.498 33.0935 152.524 33.0354C152.572 33.0248 152.593 33.0565 152.624 33.0724C152.824 33.1781 153.019 33.2892 153.219 33.395C153.308 33.4426 153.419 33.5113 153.497 33.4161C153.576 33.3209 153.471 33.2416 153.419 33.1676C153.224 32.8926 152.977 32.6652 152.724 32.4484C152.351 32.1205 151.925 31.8667 151.504 31.6023C151.425 31.5547 151.352 31.5071 151.273 31.4542C151.278 31.4436 151.283 31.4331 151.283 31.4172C151.383 31.4172 151.483 31.4172 151.578 31.4172C151.625 31.4172 151.657 31.396 151.678 31.3537C151.699 31.3061 151.673 31.2744 151.646 31.2427C151.604 31.1898 151.546 31.1581 151.488 31.1316C151.031 30.9254 150.563 30.7562 150.079 30.624C149.842 30.5605 149.6 30.4918 149.364 30.4283C149.527 30.3807 149.69 30.4019 149.853 30.3966C149.905 30.3966 149.958 30.3913 150.011 30.386C150.037 30.3807 150.074 30.3754 150.079 30.3384C150.09 30.3014 150.063 30.2855 150.037 30.2644C149.969 30.2009 149.879 30.1798 149.795 30.1586C149.348 30.037 148.896 29.9365 148.433 29.8889C148.296 29.8731 148.154 29.8995 148.012 29.836C148.07 29.762 148.149 29.7461 148.212 29.7038C148.259 29.6721 148.322 29.651 148.354 29.5981C148.386 29.5452 148.333 29.487 148.338 29.4236C148.433 29.4341 148.507 29.4447 148.585 29.4553C149.011 29.5293 149.437 29.6087 149.869 29.6827C150.068 29.7144 150.268 29.7567 150.468 29.7461C150.526 29.7461 150.579 29.7409 150.605 29.6827C150.631 29.6245 150.594 29.5769 150.558 29.5399C150.468 29.4447 150.368 29.3548 150.268 29.2755C150.232 29.2491 150.184 29.2226 150.205 29.1539C150.326 29.1592 150.447 29.1486 150.573 29.1697C151.105 29.2491 151.62 29.3866 152.146 29.4976C152.361 29.5399 152.572 29.6034 152.793 29.6245C152.851 29.6298 152.924 29.6404 152.95 29.5716C152.972 29.5135 152.95 29.4553 152.903 29.4077C152.882 29.3866 152.856 29.3654 152.84 29.3443C152.782 29.2491 152.666 29.1909 152.64 29.0693C152.808 29.0851 152.966 29.1433 153.119 29.2068C153.587 29.3971 154.055 29.5875 154.523 29.7832C154.602 29.8149 154.675 29.8519 154.76 29.8572C154.86 29.8678 154.907 29.799 154.86 29.7091C154.823 29.6404 154.77 29.5822 154.718 29.524C154.434 29.1962 154.113 28.9159 153.781 28.6409C153.308 28.2443 152.793 27.9112 152.235 27.652C151.836 27.467 151.415 27.3295 150.989 27.2184C150.952 27.2078 150.915 27.2026 150.894 27.1603C150.994 27.1232 151.094 27.1232 151.178 27.0756C151.283 27.0175 151.283 26.917 151.178 26.8535C151.126 26.8218 151.073 26.8007 151.015 26.7848C150.626 26.6737 150.226 26.605 149.821 26.605C149.469 26.605 149.117 26.605 148.764 26.605C148.706 26.605 148.649 26.605 148.575 26.605C148.649 26.4939 148.743 26.4569 148.817 26.3882C148.859 26.3512 148.896 26.3194 148.917 26.2666C148.943 26.1978 148.922 26.1608 148.848 26.1608C148.754 26.1555 148.659 26.1555 148.564 26.1872C147.907 26.4093 147.276 26.6843 146.671 27.0228C146.608 27.0545 146.55 27.1127 146.466 27.1127C146.477 27.0492 146.519 27.0333 146.54 27.0016C146.587 26.9381 146.634 26.88 146.687 26.8218C146.713 26.7901 146.724 26.7531 146.708 26.7213C146.682 26.6737 146.634 26.6896 146.597 26.6949C146.571 26.7002 146.545 26.7213 146.519 26.7319C146.434 26.7742 146.356 26.8271 146.277 26.8853C145.561 27.4194 144.962 28.0592 144.52 28.8419C144.499 28.8789 144.489 28.9212 144.425 28.9265C144.499 28.5405 144.636 28.1809 144.878 27.8636C145.014 27.6785 145.199 27.541 145.372 27.3982C145.43 27.3506 145.504 27.303 145.509 27.2078C145.341 27.1444 145.193 27.266 145.02 27.2554C145.072 27.1232 145.167 27.0492 145.256 26.9699C145.756 26.5151 146.298 26.1185 146.892 25.7906C147.087 25.6849 147.276 25.5791 147.47 25.468C147.539 25.431 147.623 25.3834 147.602 25.2935C147.576 25.1931 147.476 25.2036 147.392 25.2089C147.165 25.2195 146.939 25.2354 146.713 25.2512C146.655 25.2565 146.597 25.2777 146.545 25.2301C146.555 25.1666 146.608 25.156 146.645 25.1296C146.855 24.9921 147.081 24.8811 147.307 24.7753C147.686 24.5955 148.081 24.4633 148.47 24.3152C148.538 24.2888 148.601 24.2624 148.664 24.2253C148.696 24.2042 148.717 24.1672 148.696 24.1143C148.68 24.0773 148.659 24.0508 148.622 24.0508C148.522 24.0403 148.422 24.0297 148.322 24.0297C148.149 24.0244 147.975 24.0297 147.802 24.0297C147.744 24.0297 147.686 24.035 147.644 23.9662C147.875 23.7917 148.112 23.6489 148.359 23.5167C148.791 23.284 149.243 23.099 149.69 22.9033C149.737 22.8821 149.79 22.8663 149.832 22.824C149.853 22.8028 149.874 22.7764 149.858 22.7447C149.848 22.7182 149.827 22.6971 149.79 22.6971C149.706 22.6971 149.621 22.6918 149.537 22.7024C149.259 22.7394 148.985 22.7817 148.712 22.8187C148.67 22.824 148.633 22.8293 148.606 22.7764C148.627 22.7605 148.643 22.7447 148.664 22.7341C149.059 22.5014 149.469 22.2952 149.884 22.1048C150.305 21.9144 150.742 21.7505 151.173 21.576C151.231 21.5495 151.299 21.5337 151.346 21.4861C151.394 21.4332 151.378 21.3803 151.315 21.3645C151.268 21.3539 151.22 21.3486 151.173 21.3539C151.062 21.3592 150.947 21.375 150.836 21.3856C149.811 21.5125 148.806 21.724 147.833 22.0784C147.202 22.311 146.613 22.6125 146.114 23.0725C146.098 23.0884 146.077 23.099 146.035 23.0937C146.061 23.0196 146.087 22.9509 146.108 22.8769C146.129 22.7923 146.177 22.6865 146.082 22.6336C145.998 22.586 145.935 22.6812 145.877 22.7394C145.377 23.2312 144.983 23.8076 144.604 24.3946C144.483 24.5796 144.378 24.77 144.262 24.9551C144.247 24.9075 144.252 24.8705 144.257 24.8335C144.278 24.7277 144.299 24.6219 144.32 24.5162C144.331 24.458 144.347 24.384 144.278 24.3575C144.215 24.3311 144.168 24.3946 144.136 24.4421C144.094 24.5056 144.047 24.5691 144.01 24.6378C143.558 25.4575 143.179 26.3036 142.885 27.192C142.837 27.3295 142.806 27.4775 142.727 27.615C142.679 27.5463 142.679 27.4775 142.679 27.4035C142.679 27.2078 142.679 27.0069 142.679 26.8112C142.679 26.7531 142.706 26.6685 142.616 26.6473C142.537 26.6261 142.522 26.7108 142.495 26.7531C142.453 26.8218 142.416 26.9011 142.385 26.9752C142.227 27.3718 142.122 27.779 142.064 28.202C142.054 28.2655 142.048 28.3289 142.001 28.3871C141.885 28.3025 141.785 28.2179 141.68 28.1438C141.596 28.0857 141.559 28.0169 141.559 27.9059C141.57 27.5251 141.538 27.1391 141.486 26.7636C141.375 25.9757 141.191 25.2036 140.918 24.4527C140.634 23.6807 140.255 22.9562 139.734 22.3163C139.655 22.2158 139.561 22.1259 139.477 21.9779C139.624 22.0519 139.74 22.1154 139.855 22.163C139.939 22.2 140.029 22.2634 140.113 22.163C140.187 22.0731 140.129 21.9885 140.087 21.9144C140.008 21.7769 139.924 21.6341 139.829 21.5019C139.398 20.9097 138.898 20.3809 138.362 19.8838C137.846 19.4131 137.294 18.9848 136.705 18.6093C136.679 18.5935 136.652 18.5829 136.652 18.5459C136.7 18.5247 136.742 18.5459 136.789 18.5565C137.457 18.6992 138.13 18.8367 138.798 18.9795C138.872 18.9954 138.94 19.0007 139.009 18.9954C139.13 18.9795 139.166 18.8843 139.082 18.7944C139.009 18.7151 138.935 18.6358 138.851 18.5723C138.22 18.107 137.547 17.7156 136.831 17.3931C135.969 17.007 135.075 16.7162 134.16 16.5099C133.408 16.3354 132.64 16.2191 131.872 16.1398C131.351 16.0816 130.825 16.0446 130.289 16.0129C130.436 15.9388 130.578 15.9494 130.72 15.9388C131.225 15.9018 131.73 15.8912 132.235 15.9388C132.308 15.9441 132.377 15.9388 132.445 15.9177C132.519 15.8965 132.519 15.8436 132.498 15.7908C132.482 15.7432 132.435 15.722 132.393 15.6956C132.245 15.6057 132.098 15.5158 131.951 15.4312C131.909 15.4047 131.856 15.3889 131.83 15.3095C131.909 15.3095 131.972 15.3043 132.035 15.3095C132.466 15.3571 132.897 15.4047 133.323 15.4682C133.728 15.5264 134.133 15.611 134.538 15.6427C134.617 15.648 134.686 15.6533 134.717 15.5687C134.749 15.484 134.691 15.4312 134.633 15.3889C134.533 15.3148 134.428 15.2461 134.328 15.172C134.249 15.1086 134.149 15.061 134.086 14.9817C134.123 14.9341 134.16 14.9447 134.196 14.9499C134.486 14.9605 134.764 15.024 135.043 15.0822C135.753 15.2249 136.458 15.4153 137.157 15.5898C137.289 15.6215 137.426 15.648 137.562 15.6374C137.683 15.6268 137.725 15.5687 137.678 15.4629C137.657 15.4153 137.62 15.373 137.589 15.3307C137.489 15.2144 137.384 15.098 137.278 14.9817C137.226 14.9235 137.163 14.8759 137.157 14.7913C137.199 14.7596 137.236 14.7807 137.278 14.786C137.489 14.8336 137.689 14.9076 137.888 14.9817C138.525 15.2144 139.161 15.4523 139.797 15.685C139.871 15.7114 139.945 15.7326 140.024 15.7379C140.124 15.7485 140.166 15.685 140.134 15.5898C140.118 15.5316 140.081 15.484 140.039 15.4417C139.855 15.2302 139.666 15.024 139.482 14.8125C139.45 14.7754 139.408 14.7384 139.424 14.6697C139.456 14.6697 139.482 14.6644 139.503 14.6697C139.74 14.7437 139.987 14.8072 140.218 14.8971C140.823 15.1297 141.423 15.373 142.022 15.611C142.106 15.6427 142.19 15.6744 142.274 15.7009C142.327 15.7167 142.385 15.722 142.422 15.6691C142.464 15.611 142.422 15.5634 142.395 15.5211C142.306 15.3677 142.175 15.2408 142.054 15.1086C141.706 14.7437 141.354 14.3894 141.002 14.0298C140.954 13.9822 140.902 13.9452 140.886 13.8765C140.954 13.85 141.018 13.887 141.075 13.9082C141.312 13.9981 141.549 14.0986 141.78 14.2096C142.317 14.474 142.821 14.786 143.321 15.1139C143.379 15.1509 143.458 15.2355 143.521 15.1562C143.563 15.098 143.484 15.0293 143.431 14.9817C143.253 14.8177 143.074 14.6485 142.89 14.4846C142.164 13.8447 141.386 13.2736 140.518 12.8347C139.45 12.29 138.32 11.9992 137.131 11.9251C136.958 11.9146 136.784 11.9251 136.616 11.9093C136.374 11.8828 136.132 11.8934 135.885 11.904C135.627 11.9198 135.369 11.9093 135.106 11.9093C135.127 11.867 135.169 11.867 135.206 11.8511C135.548 11.7453 135.885 11.6396 136.227 11.5338C136.269 11.5232 136.305 11.5127 136.342 11.4968C136.374 11.4809 136.4 11.4545 136.395 11.4122C136.39 11.3699 136.358 11.354 136.316 11.354C136.279 11.354 136.242 11.354 136.211 11.354C135.879 11.354 135.548 11.3805 135.212 11.4122C134.428 11.4809 133.66 11.6237 132.892 11.8141C132.014 12.0309 131.167 12.327 130.336 12.6708C130.147 12.7501 129.952 12.8188 129.737 12.9087C129.779 12.8294 129.821 12.7924 129.868 12.7607C129.963 12.6919 130.058 12.6126 130.152 12.5438C130.51 12.2742 130.867 12.0097 131.23 11.7453C131.309 11.6872 131.378 11.6184 131.441 11.5497C131.53 11.4492 131.504 11.3646 131.378 11.317C131.33 11.2958 131.272 11.2906 131.22 11.28C131.188 11.2747 131.146 11.28 131.141 11.2324C131.162 11.1848 131.209 11.1795 131.246 11.1636C131.798 10.9363 132.356 10.7459 132.929 10.5714C133.444 10.4127 133.965 10.2594 134.486 10.1007C134.58 10.069 134.68 10.0373 134.759 9.97381C134.854 9.89449 134.854 9.80988 134.749 9.74642C134.696 9.71469 134.644 9.69354 134.586 9.67239C134.302 9.57191 134.007 9.54547 133.713 9.49259C133.397 9.42913 133.082 9.37096 132.766 9.30751C132.708 9.29693 132.614 9.29164 132.608 9.21761C132.603 9.15415 132.682 9.11713 132.74 9.0854C132.908 8.99551 133.082 8.91618 133.26 8.85273C134.296 8.49313 135.364 8.30276 136.453 8.23402C136.584 8.22344 136.71 8.20757 136.842 8.19171C136.889 8.18642 136.942 8.16527 136.936 8.1071C136.936 8.05951 136.884 8.04364 136.847 8.02778C136.826 8.0172 136.8 8.0172 136.779 8.0172C136.61 7.99605 136.437 7.96961 136.269 7.94846C135.779 7.885 135.29 7.82683 134.801 7.76337C134.749 7.75808 134.696 7.73693 134.622 7.69463C134.791 7.60473 134.943 7.55713 135.096 7.52012C135.837 7.34561 136.579 7.18168 137.32 7.00188C137.541 6.949 137.767 6.92256 137.973 6.81679C138.03 6.79035 138.078 6.75863 138.078 6.68459C138.078 6.61056 138.03 6.57883 137.978 6.5471C137.925 6.52066 137.867 6.49422 137.815 6.47835C137.689 6.44663 137.562 6.4149 137.436 6.38846C137.152 6.325 136.868 6.26683 136.584 6.19808C136.521 6.18222 136.437 6.19279 136.411 6.09232C136.521 6.013 136.637 5.96541 136.763 5.9231C137.168 5.7909 137.578 5.66927 137.999 5.57408C138.504 5.46303 139.014 5.37842 139.529 5.3414C139.776 5.32554 140.029 5.31496 140.276 5.28852C140.386 5.27795 140.513 5.28324 140.597 5.17747C140.56 5.09815 140.492 5.07171 140.423 5.05585C140.313 5.02412 140.202 4.99768 140.092 4.98181C139.577 4.89191 139.056 4.86547 138.53 4.87076C138.146 4.87605 137.767 4.90249 137.394 4.95008C136.174 5.10873 135.001 5.45774 133.865 5.93368C133.418 6.11876 132.976 6.30913 132.535 6.49422C132.477 6.52066 132.398 6.58412 132.361 6.53124C132.308 6.46249 132.403 6.40961 132.445 6.36202C132.829 5.91781 133.266 5.53178 133.755 5.20391C133.797 5.17218 133.886 5.15103 133.844 5.077C133.807 5.00825 133.739 5.05585 133.686 5.077C132.903 5.40486 132.145 5.78032 131.478 6.31442C131.241 6.50479 130.999 6.68988 130.757 6.87496C130.699 6.92256 130.636 6.97015 130.552 6.97015C130.52 6.87496 130.562 6.79035 130.594 6.71103C130.741 6.34086 130.894 5.97069 131.046 5.60052C131.073 5.53707 131.099 5.46832 131.109 5.39429C131.12 5.31496 131.062 5.27266 130.983 5.2991C130.92 5.32025 130.873 5.36785 130.831 5.41544C130.505 5.79618 130.184 6.18222 129.9 6.59469C129.411 7.29273 128.985 8.02249 128.527 8.74168C128.49 8.79456 128.464 8.85273 128.401 8.88446C128.364 8.81571 128.385 8.75225 128.396 8.68879C128.454 8.39795 128.522 8.1071 128.58 7.81096C128.611 7.6629 128.648 7.52012 128.638 7.36676C128.632 7.23985 128.569 7.20812 128.464 7.27686C128.401 7.31388 128.359 7.37205 128.312 7.42493C127.796 8.05951 127.418 8.77869 127.086 9.52432C126.744 10.2911 126.487 11.0843 126.287 11.8987C126.276 11.9463 126.282 12.0097 126.213 12.0362C126.197 11.9886 126.176 11.9357 126.161 11.8881C126.019 11.4862 125.877 11.0896 125.735 10.6877C125.708 10.6137 125.677 10.5449 125.619 10.4868C125.598 10.4656 125.566 10.4603 125.535 10.4709C125.508 10.4815 125.514 10.5079 125.514 10.5291C125.514 10.6348 125.524 10.7459 125.535 10.8516C125.551 10.9891 125.593 11.1213 125.572 11.2588C125.524 11.1636 125.493 11.0579 125.456 10.9627C125.309 10.5555 125.135 10.1642 124.946 9.77815C124.751 9.38683 124.546 9.0008 124.299 8.6412C124.252 8.57246 124.209 8.44554 124.11 8.49842C124.036 8.53544 124.088 8.64649 124.115 8.7311C124.267 9.23347 124.415 9.73585 124.567 10.2435C124.588 10.307 124.609 10.3757 124.578 10.4497C124.493 10.418 124.436 10.3651 124.383 10.3123C124.01 9.9791 123.647 9.63008 123.268 9.30751C122.385 8.55659 121.433 7.90086 120.402 7.36147C120.049 7.17639 119.681 7.01774 119.308 6.88025C119.229 6.85381 119.119 6.80622 119.066 6.90669C119.024 6.99659 119.119 7.05476 119.182 7.10764C119.355 7.25571 119.534 7.3932 119.713 7.53598C119.76 7.573 119.808 7.59944 119.839 7.67347C119.713 7.69991 119.608 7.65761 119.497 7.63646C118.829 7.50425 118.161 7.40378 117.483 7.37734C116.847 7.35618 116.21 7.36676 115.574 7.43551C114.617 7.54656 113.691 7.77395 112.787 8.10181C112.497 8.20757 112.213 8.3292 111.94 8.48256C111.866 8.52486 111.798 8.56717 111.73 8.61476C111.688 8.6412 111.656 8.68351 111.672 8.73639C111.688 8.78927 111.74 8.79985 111.787 8.80513C111.845 8.81042 111.908 8.80513 111.966 8.79985C112.766 8.72052 113.56 8.5989 114.359 8.58303C114.47 8.58303 114.58 8.5513 114.69 8.62005C114.643 8.71524 114.559 8.75225 114.485 8.79456C114.243 8.94263 113.996 9.09069 113.749 9.23347C113.675 9.27578 113.607 9.32337 113.549 9.38154C113.486 9.43971 113.502 9.49259 113.576 9.54018C113.628 9.57191 113.681 9.56134 113.733 9.56134C114.354 9.54547 114.969 9.49259 115.585 9.46086C116.131 9.42913 116.678 9.43442 117.231 9.46086C117.341 9.46615 117.462 9.45557 117.578 9.49788C117.546 9.55605 117.504 9.55605 117.467 9.56663C117.236 9.62479 117.004 9.68825 116.778 9.75171C116.705 9.77286 116.626 9.79402 116.563 9.83103C116.468 9.88391 116.479 9.98968 116.573 10.0373C116.605 10.0531 116.642 10.0584 116.673 10.069C117.125 10.18 117.583 10.2435 118.041 10.3175C118.582 10.4074 119.124 10.4868 119.65 10.6454C119.697 10.6613 119.755 10.656 119.792 10.7247C119.75 10.7353 119.723 10.7459 119.697 10.7512C119.329 10.8252 118.961 10.8728 118.587 10.9204C118.445 10.9363 118.303 10.9627 118.172 11.0103C118.125 11.0262 118.083 11.0526 118.088 11.1108C118.088 11.1636 118.13 11.1795 118.172 11.1901C118.214 11.2007 118.251 11.2218 118.293 11.2271C118.461 11.2588 118.63 11.2958 118.803 11.3223C119.539 11.4386 120.265 11.5761 120.991 11.7506C121.033 11.7612 121.075 11.7612 121.086 11.8194C120.88 11.8352 120.67 11.8405 120.465 11.8723C120.391 11.8828 120.27 11.8564 120.26 11.9674C120.255 12.0679 120.365 12.0838 120.439 12.1155C120.759 12.2424 121.086 12.3588 121.406 12.4804C122.001 12.7131 122.59 12.9616 123.142 13.2736C123.215 13.3159 123.3 13.3424 123.352 13.4323C123.247 13.4323 123.152 13.4323 123.063 13.4323C123.005 13.4323 122.953 13.4375 122.926 13.4957C122.905 13.5486 122.931 13.6015 122.968 13.6438C123.005 13.6861 123.042 13.7231 123.079 13.7601C123.205 13.8712 123.331 13.9769 123.463 14.0827C123.936 14.474 124.394 14.8865 124.804 15.3466C124.83 15.3783 124.877 15.4047 124.862 15.4629C124.788 15.4576 124.746 15.4153 124.693 15.3889C124.036 15.0134 123.373 14.6485 122.679 14.3471C122.553 14.2942 122.427 14.2413 122.295 14.2043C122.227 14.1885 122.137 14.1409 122.085 14.2308C122.037 14.3048 122.09 14.3683 122.137 14.4264C122.211 14.5216 122.285 14.6168 122.353 14.712C122.374 14.7384 122.421 14.7702 122.379 14.8177C122.316 14.823 122.264 14.786 122.211 14.7649C121.748 14.548 121.301 14.2942 120.833 14.0827C120.281 13.8289 119.729 13.5856 119.145 13.4058C119.066 13.3794 118.987 13.3582 118.898 13.3635C118.782 13.3741 118.75 13.4058 118.772 13.5222C118.787 13.612 118.845 13.6861 118.898 13.7548C119.061 13.9611 119.224 14.1673 119.382 14.3735C119.429 14.437 119.476 14.4952 119.513 14.5639C119.555 14.6485 119.524 14.6908 119.429 14.6803C119.303 14.6644 119.187 14.6168 119.071 14.5692C118.572 14.3683 118.077 14.1673 117.578 13.9769C117.11 13.8024 116.642 13.6226 116.142 13.5539C116.063 13.5433 115.968 13.501 115.916 13.6015C115.874 13.6914 115.932 13.7601 115.989 13.8236C116.026 13.8659 116.063 13.9029 116.105 13.9399C116.237 14.0563 116.368 14.1673 116.494 14.2836C116.531 14.3154 116.573 14.3524 116.547 14.4053C116.526 14.4529 116.473 14.4317 116.431 14.437C116.415 14.437 116.394 14.437 116.379 14.437C115.968 14.3841 115.553 14.3312 115.143 14.2836C114.817 14.2466 114.496 14.199 114.165 14.199C114.065 14.199 113.959 14.2149 113.865 14.2413C113.754 14.2731 113.744 14.3365 113.817 14.4264C113.875 14.4899 113.949 14.5269 114.023 14.5692C114.249 14.6803 114.47 14.7913 114.69 14.9076C114.759 14.9447 114.848 14.9764 114.848 15.061C114.848 15.1562 114.748 15.1826 114.669 15.2144C114.391 15.336 114.101 15.4259 113.817 15.5316C112.934 15.8595 112.087 16.272 111.283 16.7585C110.767 17.0705 110.262 17.3984 109.794 17.7791C109.689 17.8637 109.579 17.9483 109.516 18.0805C109.463 18.1916 109.494 18.2392 109.61 18.2392C109.689 18.2392 109.763 18.2286 109.842 18.2233C109.926 18.218 109.999 18.1757 110.094 18.2022C110.057 18.2973 109.989 18.3608 109.926 18.4295C109.537 18.842 109.142 19.2492 108.763 19.6723C108.29 20.2011 107.833 20.7405 107.407 21.3116C107.322 21.4279 107.233 21.539 107.175 21.6765C107.154 21.724 107.117 21.7716 107.159 21.8245C107.207 21.8827 107.265 21.8615 107.322 21.8404C107.438 21.8087 107.538 21.7399 107.638 21.6712C108.248 21.2534 108.858 20.8356 109.468 20.4179C109.963 20.0794 110.446 19.7304 110.967 19.4449C111.035 19.4078 111.098 19.3655 111.193 19.3814C111.156 19.5136 111.062 19.6088 110.988 19.7146C110.799 19.9737 110.604 20.2328 110.41 20.4866C110.346 20.5659 110.299 20.6558 110.262 20.751C110.21 20.8885 110.273 20.9626 110.415 20.9361C110.509 20.9203 110.604 20.8938 110.688 20.8515C111.093 20.64 111.503 20.4285 111.908 20.2169C112.229 20.0477 112.539 19.8573 112.881 19.7304C112.939 19.7093 112.997 19.6775 113.071 19.7198C113.055 19.7516 113.05 19.778 113.034 19.8045C112.929 19.9631 112.823 20.127 112.718 20.2857C112.655 20.3809 112.603 20.4813 112.566 20.5871C112.529 20.6929 112.571 20.7457 112.676 20.7563C112.76 20.7669 112.845 20.7457 112.918 20.7087C113.071 20.64 113.223 20.5712 113.365 20.4866C113.933 20.1588 114.496 19.8203 115.059 19.4872C115.248 19.3761 115.432 19.2651 115.627 19.1752C115.658 19.2228 115.632 19.2439 115.616 19.2651C115.527 19.392 115.437 19.5189 115.353 19.6511C115.311 19.7146 115.264 19.7939 115.311 19.8679C115.369 19.9472 115.464 19.9261 115.542 19.8996C115.679 19.8573 115.811 19.8045 115.942 19.7463C116.342 19.5665 116.736 19.3708 117.146 19.2069C117.231 19.1752 117.315 19.1434 117.399 19.1117C117.436 19.0958 117.478 19.0853 117.515 19.1223C117.557 19.1646 117.52 19.2016 117.504 19.2386C117.473 19.3074 117.436 19.3761 117.399 19.4502C117.378 19.4977 117.346 19.5506 117.383 19.6035C117.425 19.6617 117.488 19.6511 117.546 19.6352C117.699 19.5982 117.835 19.5295 117.972 19.4554C118.524 19.1593 119.071 18.8579 119.634 18.5882C119.692 18.5617 119.744 18.5194 119.813 18.5406C119.813 18.5723 119.797 18.5882 119.787 18.6093C119.708 18.7151 119.629 18.8209 119.55 18.9213C119.503 18.9848 119.482 19.0535 119.518 19.1223C119.55 19.1857 119.618 19.1752 119.676 19.1752C119.897 19.1857 120.118 19.1593 120.333 19.1117C120.402 19.0958 120.449 19.1064 120.465 19.1805C120.486 19.2704 120.549 19.2862 120.628 19.2862C120.733 19.2862 120.844 19.2704 120.949 19.2598C121.07 19.2492 121.196 19.2122 121.343 19.2598C121.259 19.3127 121.201 19.3497 121.143 19.3867C120.191 19.9102 119.292 20.5131 118.472 21.2323C118.351 21.338 118.225 21.4438 118.151 21.5918C118.098 21.6923 118.13 21.7452 118.246 21.7558C118.33 21.7611 118.414 21.7452 118.493 21.7188C118.645 21.6659 118.798 21.613 118.95 21.5654C118.982 21.5548 119.024 21.5337 119.066 21.5707C119.05 21.5866 119.04 21.6024 119.024 21.613C118.745 21.8351 118.472 22.0678 118.214 22.311C117.714 22.7923 117.241 23.2999 116.82 23.8499C116.552 24.2042 116.289 24.5532 116.074 24.9392C116.016 25.0397 115.963 25.1402 115.942 25.2512C115.921 25.3729 115.984 25.4363 116.105 25.4205C116.205 25.4099 116.3 25.3676 116.389 25.32C116.563 25.2301 116.742 25.1402 116.915 25.0556C116.983 25.0238 117.057 24.9498 117.125 25.008C117.199 25.0714 117.131 25.156 117.11 25.2248C116.978 25.6003 116.836 25.9757 116.699 26.3565C116.557 26.7478 116.426 27.1444 116.316 27.5516C116.284 27.6626 116.237 27.7314 116.105 27.7525C115.832 27.8001 115.558 27.8741 115.29 27.9376C114.28 28.165 113.355 28.5669 112.55 29.2279C112.487 29.2808 112.419 29.3231 112.324 29.3125C112.266 29.3072 112.203 29.3337 112.135 29.3495C112.15 29.2914 112.182 29.2596 112.213 29.2226C112.434 28.9635 112.655 28.7044 112.876 28.4453C112.955 28.3501 113.039 28.2549 113.102 28.1438C113.123 28.1015 113.15 28.0487 113.113 28.0116C113.081 27.9746 113.029 27.9746 112.981 27.9852C112.892 28.0011 112.818 28.0539 112.734 28.0804C112.645 28.1121 112.561 28.1809 112.445 28.1756C112.45 28.0963 112.508 28.0539 112.545 28.0064C112.766 27.7419 112.992 27.4775 113.218 27.2184C113.307 27.1127 113.397 27.0122 113.47 26.8906C113.491 26.8588 113.497 26.8218 113.47 26.7901C113.444 26.7584 113.407 26.7584 113.37 26.7636C113.302 26.7795 113.249 26.8324 113.165 26.8324C113.181 26.7584 113.223 26.716 113.26 26.6685C113.455 26.4146 113.66 26.1608 113.849 25.9017C114.002 25.7007 114.17 25.5156 114.275 25.283C114.338 25.1402 114.27 25.045 114.117 25.0609C114.049 25.0661 113.975 25.082 113.907 25.0979C113.86 25.1085 113.807 25.1402 113.775 25.0873C113.739 25.0344 113.786 24.9868 113.812 24.9445C113.891 24.8176 113.986 24.7013 114.08 24.5902C114.47 24.1249 114.854 23.6489 115.253 23.1941C115.337 23.0937 115.437 23.0038 115.495 22.8874C115.511 22.8557 115.527 22.824 115.506 22.787C115.479 22.7447 115.437 22.7447 115.395 22.7552C115.369 22.7605 115.337 22.7764 115.311 22.787C115.095 22.861 114.901 22.9773 114.706 23.0884C113.986 23.5061 113.307 23.9768 112.697 24.5426C112.482 24.7436 112.282 24.9551 112.077 25.1666C112.035 25.2089 112.003 25.2724 111.914 25.2671C111.945 25.119 111.982 24.9815 112.003 24.844C112.019 24.7436 112.056 24.6484 112.045 24.5426C112.04 24.5056 112.029 24.4739 111.993 24.458C111.961 24.4474 111.935 24.4633 111.914 24.4845C111.856 24.5373 111.824 24.6114 111.787 24.6801C111.53 25.1666 111.34 25.6849 111.12 26.1872C111.098 26.2348 111.099 26.293 111.025 26.3141C110.999 26.2348 111.03 26.1608 111.041 26.0868C111.051 26.0233 111.051 25.9334 110.988 25.9122C110.909 25.8911 110.888 25.981 110.867 26.0392C110.804 26.2454 110.741 26.4516 110.688 26.6579C110.546 27.2184 110.452 27.7895 110.336 28.3554C110.325 28.4083 110.325 28.4664 110.278 28.5034C110.231 28.4664 110.225 28.4135 110.215 28.3607C110.183 28.239 110.147 28.1174 110.11 28.0011C110.094 27.9429 110.078 27.8689 109.999 27.8847C109.947 27.8953 109.963 27.9746 109.941 28.0222C109.931 28.0487 109.941 28.0804 109.936 28.1121C109.936 28.2232 109.957 28.3395 109.957 28.4506C109.963 28.9371 109.994 29.4183 110.01 29.9048C110.01 29.9365 110.015 29.9788 109.968 30C109.889 29.9735 109.873 29.8889 109.826 29.8308C109.778 29.7726 109.736 29.7144 109.658 29.7091C109.615 29.7038 109.563 29.8413 109.584 29.9312C109.615 30.0581 109.6 30.1956 109.642 30.3226C109.658 30.3701 109.658 30.423 109.642 30.4706C109.584 30.4706 109.568 30.4336 109.542 30.4125C109.021 29.8995 108.427 29.4976 107.78 29.1697C107.717 29.138 107.649 29.1169 107.58 29.0904C107.538 29.0746 107.491 29.0693 107.464 29.1063C107.438 29.1433 107.443 29.1962 107.48 29.2385C107.512 29.2808 107.564 29.3178 107.57 29.4024C107.491 29.3707 107.428 29.3495 107.365 29.3231C106.933 29.1486 106.502 28.9741 106.05 28.8577C105.713 28.7731 105.377 28.7097 105.029 28.7044C104.982 28.7044 104.945 28.715 104.93 28.7573C104.914 28.7943 104.935 28.8313 104.966 28.8525C104.998 28.8789 105.035 28.9 105.066 28.9265C105.15 28.9847 105.24 29.0375 105.324 29.0904C105.371 29.1221 105.361 29.1592 105.313 29.1856C105.292 29.1962 105.266 29.1962 105.245 29.1962C105.04 29.2173 104.83 29.2332 104.625 29.2544C104.183 29.3019 103.741 29.3813 103.315 29.5188C102.658 29.7303 102.058 30.0581 101.532 30.5129C101.474 30.5658 101.406 30.6187 101.459 30.7086C101.506 30.7879 101.58 30.7562 101.653 30.735C101.864 30.6769 102.079 30.6134 102.289 30.5605C102.542 30.4971 102.8 30.4336 103.057 30.4072C103.094 30.4019 103.136 30.3913 103.157 30.423C103.189 30.46 103.163 30.5024 103.136 30.5394C103.12 30.5658 103.099 30.587 103.084 30.6081C102.984 30.7245 102.884 30.8461 102.784 30.9624C102.737 31.0206 102.658 31.084 102.71 31.1634C102.768 31.2533 102.857 31.1951 102.936 31.1687C102.942 31.1687 102.947 31.1634 102.952 31.1634C103.241 31.0523 103.531 30.9466 103.82 30.8302C104.088 30.7245 104.362 30.6451 104.635 30.5658C104.677 30.5552 104.719 30.5447 104.751 30.5817C104.788 30.624 104.761 30.661 104.74 30.698C104.677 30.8196 104.609 30.9413 104.546 31.0629C104.509 31.1264 104.472 31.1951 104.53 31.2586C104.588 31.3273 104.661 31.3167 104.74 31.285C104.909 31.2215 105.077 31.1634 105.245 31.1052C105.434 31.0417 105.624 30.9624 105.829 30.936C105.971 30.9148 106.002 30.9518 105.976 31.0893C105.971 31.1264 105.966 31.1581 105.96 31.1951C105.939 31.4225 105.992 31.4859 106.223 31.4859C106.481 31.4859 106.728 31.4278 106.986 31.3908C107.154 31.3643 107.328 31.3326 107.501 31.3432C107.617 31.3485 107.649 31.3855 107.643 31.4965C107.643 31.5706 107.638 31.6393 107.633 31.7133C107.627 31.8085 107.68 31.8561 107.764 31.8826C107.833 31.9037 107.906 31.9143 107.975 31.9037C108.106 31.8878 108.232 31.872 108.364 31.8561C108.432 31.8508 108.506 31.8403 108.579 31.8455C108.674 31.8508 108.69 31.8826 108.653 31.9725C108.606 32.1047 108.558 32.1258 108.411 32.1205C108.259 32.1205 108.101 32.0994 107.948 32.0994C107.517 32.0941 107.091 32.1205 106.67 32.1946C105.224 32.4431 104.036 33.1306 103.126 34.2887C102.626 34.9232 102.237 35.616 101.906 36.351C101.627 36.9592 101.401 37.5885 101.211 38.2336C101.185 38.3235 101.154 38.4187 101.159 38.5139C101.159 38.535 101.154 38.5615 101.185 38.572C101.211 38.5826 101.232 38.572 101.253 38.5562C101.301 38.5245 101.322 38.4716 101.348 38.4293C101.637 37.9692 101.879 37.4774 102.211 37.0438C102.237 37.012 102.253 36.9697 102.311 36.975C102.332 37.0649 102.311 37.1495 102.295 37.2341C102.263 37.3981 102.226 37.562 102.237 37.7312C102.242 37.837 102.274 37.8529 102.374 37.8158C102.447 37.7841 102.5 37.7312 102.547 37.6678C102.868 37.2606 103.157 36.8217 103.457 36.4039C103.499 36.3405 103.536 36.2664 103.62 36.2294C103.61 36.3193 103.573 36.3933 103.541 36.4727C103.499 36.5837 103.452 36.6948 103.452 36.8164C103.452 36.9221 103.51 36.9592 103.599 36.901C103.667 36.8587 103.736 36.8058 103.794 36.7476C104.083 36.4727 104.372 36.1924 104.661 35.9174C104.751 35.8328 104.845 35.7482 104.94 35.6636C104.924 35.7693 104.882 35.8539 104.845 35.9386C104.819 36.0073 104.735 36.0866 104.819 36.1448C104.898 36.1977 104.951 36.0919 104.998 36.0337C105.382 35.579 105.766 35.1189 106.16 34.6694C106.197 34.6271 106.234 34.5848 106.302 34.5742C106.286 34.7276 106.223 34.8598 106.171 34.992C106.071 35.2723 105.955 35.5472 105.871 35.8328C105.855 35.8857 105.839 35.9438 105.881 35.9809C105.939 36.0337 105.997 35.9861 106.044 35.9544C106.097 35.9174 106.144 35.8698 106.192 35.8275C106.297 35.7217 106.402 35.616 106.507 35.5102C106.576 35.4468 106.644 35.378 106.739 35.3251C106.749 35.3886 106.744 35.4309 106.728 35.4732C106.707 35.5314 106.691 35.5948 106.749 35.6371C106.812 35.6847 106.875 35.6689 106.933 35.6266C107.033 35.5525 107.138 35.4838 107.238 35.4045C107.522 35.1718 107.806 34.9285 108.09 34.6958C108.138 34.6588 108.18 34.6007 108.259 34.6112C108.253 34.6483 108.253 34.68 108.248 34.7064C108.243 34.7434 108.227 34.7752 108.227 34.8122C108.217 34.9338 108.285 34.992 108.406 34.9497C108.469 34.9285 108.522 34.8968 108.579 34.8598C108.8 34.7064 109.011 34.5425 109.221 34.3786C109.258 34.3521 109.289 34.2992 109.374 34.3045C109.305 34.4473 109.247 34.5795 109.179 34.7011C109.116 34.8228 109.037 34.9338 108.953 35.0449C108.585 35.5155 108.274 36.0285 108.048 36.5837C107.68 37.4827 107.528 38.4134 107.575 39.3864C107.606 40.1162 107.759 40.8195 108.022 41.4964C108.39 42.4483 108.926 43.2996 109.636 44.0347C110.11 44.5212 110.641 44.939 111.214 45.2933C111.488 45.4625 111.772 45.6211 112.066 45.7428C112.15 45.7745 112.266 45.8432 112.329 45.7533C112.397 45.6581 112.292 45.5735 112.224 45.5101C112.019 45.3091 111.819 45.1082 111.603 44.9125C111.24 44.5794 110.867 44.2515 110.499 43.9184C110.473 43.8919 110.431 43.8708 110.441 43.8126C110.483 43.8337 110.515 43.8496 110.546 43.8655C110.673 43.9289 110.804 43.9924 110.941 44.0347C111.135 44.0929 111.219 44.0241 111.177 43.8232C111.156 43.7174 111.109 43.6169 111.067 43.5217C110.899 43.1674 110.704 42.8343 110.509 42.4958C110.441 42.3742 110.373 42.2526 110.294 42.1151C110.394 42.1363 110.425 42.1944 110.483 42.2314C110.557 42.279 110.62 42.3425 110.709 42.3795C110.851 42.4324 110.909 42.3954 110.914 42.242C110.914 42.131 110.883 42.0305 110.851 41.9247C110.757 41.6286 110.62 41.3483 110.494 41.0628C110.441 40.9411 110.373 40.8301 110.346 40.6873C110.404 40.7085 110.431 40.756 110.467 40.7878C110.573 40.883 110.678 40.9834 110.799 41.0575C110.935 41.1368 111.02 41.0892 111.02 40.9306C111.02 40.7984 110.983 40.6714 110.941 40.5445C110.82 40.2114 110.694 39.8835 110.573 39.5556C110.557 39.5186 110.531 39.4816 110.573 39.434C110.651 39.508 110.725 39.5821 110.804 39.6561C110.836 39.6878 110.872 39.7037 110.92 39.6773C110.956 39.6561 110.978 39.6191 110.978 39.5768C110.978 39.5239 110.957 39.4816 110.941 39.4393C110.857 39.2225 110.762 39.0057 110.678 38.7942C110.594 38.5879 110.515 38.3817 110.431 38.1807C110.415 38.149 110.404 38.1067 110.431 38.0802C110.467 38.0379 110.509 38.075 110.541 38.0908C110.63 38.1437 110.715 38.1966 110.799 38.2495C110.846 38.2759 110.893 38.3024 110.941 38.3235C110.993 38.3447 111.046 38.3552 111.088 38.3076C111.125 38.2653 111.12 38.223 111.104 38.1754C111.067 38.0485 111.014 37.9269 110.962 37.8106C110.836 37.5197 110.673 37.2447 110.573 36.9433C110.552 36.8746 110.531 36.8058 110.562 36.7265C110.699 36.7265 110.804 36.8111 110.92 36.8746C111.088 36.9697 111.256 37.0755 111.43 37.176C111.488 37.213 111.561 37.2236 111.614 37.1707C111.656 37.1231 111.645 37.0544 111.624 37.0015C111.598 36.9274 111.567 36.8587 111.53 36.7899C111.372 36.4938 111.214 36.203 111.056 35.9068C111.03 35.8592 110.988 35.8116 111.004 35.7535C111.041 35.7482 111.062 35.7588 111.083 35.7693C111.183 35.8275 111.277 35.8857 111.377 35.9333C111.572 36.0232 111.656 35.965 111.656 35.7535C111.656 35.5314 111.598 35.3198 111.561 35.0872C111.656 35.1136 111.666 35.1876 111.693 35.2458C111.935 35.6953 112.166 36.1448 112.382 36.6049C112.85 37.599 113.218 38.6355 113.497 39.6984C113.817 40.9411 114.023 42.2103 114.196 43.4794C114.333 44.4525 114.428 45.436 114.517 46.4144C114.564 46.9273 114.243 52.9346 114.27 53.4476C114.291 53.823 114.296 54.1985 114.301 54.5739H115.674C115.711 54.484 115.711 54.3254 115.7 54.1615ZM134.733 27.7314C134.717 27.6732 134.701 27.6203 134.686 27.5621C134.775 27.5251 134.843 27.5674 134.922 27.5939C134.885 27.6732 134.822 27.7102 134.733 27.7314ZM131.709 20.4232C132.377 20.8409 133.039 21.2587 133.707 21.6765C133.786 21.7293 133.87 21.7716 133.965 21.7928C134.091 21.8245 134.144 21.7875 134.149 21.6606C134.154 21.5548 134.118 21.4596 134.081 21.3645C134.028 21.2323 133.976 21.1 133.949 20.9573C134.102 21.1424 134.26 21.3274 134.412 21.5125C134.833 22.0202 135.254 22.5331 135.68 23.0408C135.769 23.1466 135.864 23.247 135.974 23.3264C136.016 23.3581 136.058 23.4004 136.116 23.3634C136.184 23.3211 136.19 23.2576 136.174 23.1889C136.153 23.0884 136.127 22.9932 136.1 22.8927C136.079 22.8134 136.063 22.7341 136.032 22.6177C136.137 22.66 136.179 22.7182 136.227 22.7711C136.816 23.4215 137.347 24.1196 137.857 24.8335C137.957 24.9763 138.067 25.1085 138.172 25.2459C138.188 25.2671 138.209 25.2935 138.23 25.3094C138.32 25.3676 138.393 25.3306 138.399 25.2248C138.404 25.1296 138.372 25.0344 138.351 24.9445C138.33 24.8229 138.278 24.7066 138.299 24.5479C138.435 24.6378 138.541 24.733 138.64 24.844C139.024 25.2618 139.408 25.6796 139.766 26.1185C140.129 26.568 140.476 27.0333 140.786 27.5198C140.802 27.5463 140.828 27.5621 140.823 27.5992C140.781 27.6309 140.744 27.5992 140.707 27.578C139.692 27.1179 138.635 26.8588 137.531 26.7584C136.973 26.7055 136.411 26.7108 135.853 26.7425C135.474 26.7636 135.096 26.8112 134.722 26.8958C134.686 26.9011 134.654 26.9064 134.617 26.917C134.528 26.9381 134.48 26.9064 134.444 26.8165C134.249 26.2824 134.007 25.7695 133.76 25.2565C133.629 24.9868 133.476 24.733 133.36 24.4527C133.413 24.4051 133.45 24.4527 133.487 24.4739C133.702 24.6114 133.918 24.7542 134.133 24.8916C134.212 24.9445 134.296 24.9921 134.391 25.0133C134.517 25.045 134.591 24.9815 134.575 24.8546C134.559 24.7383 134.502 24.6378 134.449 24.5426C134.228 24.146 133.965 23.7758 133.697 23.411C133.245 22.7975 132.756 22.2106 132.266 21.6236C132.23 21.5813 132.193 21.5443 132.182 21.4861C132.23 21.4544 132.272 21.4861 132.314 21.5019C132.345 21.5125 132.382 21.5337 132.414 21.539C132.477 21.5495 132.55 21.576 132.592 21.5072C132.629 21.4491 132.587 21.3962 132.556 21.3433C132.414 21.1 132.188 20.9361 131.993 20.7457C131.867 20.6188 131.73 20.5025 131.598 20.3756C131.656 20.3544 131.683 20.4073 131.709 20.4232ZM117.846 30.5764C117.856 30.46 117.862 30.3437 117.93 30.2062C118.046 30.3754 118.088 30.5341 118.135 30.6927C118.156 30.7562 118.114 30.7668 118.067 30.7668C118.025 30.7668 117.983 30.7562 117.946 30.7456C117.83 30.7139 117.83 30.7086 117.846 30.5764ZM113.349 31.2956C113.691 31.0206 114.038 30.7456 114.38 30.4706C114.464 30.4019 114.548 30.3384 114.543 30.2115C114.364 30.1428 114.196 30.2432 114.023 30.2485C114.012 30.1639 114.08 30.148 114.117 30.1163C114.443 29.8678 114.775 29.6192 115.101 29.376C115.153 29.339 115.206 29.2967 115.248 29.2438C115.274 29.212 115.295 29.1697 115.279 29.1274C115.264 29.0798 115.216 29.0798 115.174 29.0798C115.095 29.0798 115.011 29.0798 114.932 29.0798C114.932 29.0693 114.927 29.0534 114.927 29.0428C115.285 28.8736 115.653 28.7308 116.032 28.6251C116.068 28.6727 116.063 28.715 116.053 28.7573C116.005 29.0005 115.958 29.2491 115.9 29.4923C115.869 29.6298 115.879 29.7673 115.879 29.9048C115.879 29.9418 115.884 29.9788 115.926 29.9894C115.968 30 116.011 30.0053 116.042 29.963C116.079 29.9154 116.121 29.8731 116.153 29.8202C116.252 29.6563 116.347 29.4923 116.447 29.3284C116.479 29.2808 116.505 29.2068 116.573 29.2226C116.636 29.2332 116.626 29.3125 116.631 29.3601C116.678 29.7461 116.72 30.1322 116.757 30.5182C116.773 30.6821 116.747 30.7033 116.589 30.7192C115.684 30.7879 114.806 30.9994 113.959 31.3273C113.823 31.3802 113.691 31.4278 113.544 31.4013C113.455 31.3855 113.37 31.4542 113.271 31.4013C113.276 31.3485 113.313 31.322 113.349 31.2956Z" stroke="white" stroke-width="0.5" stroke-miterlimit="10"/>
<path d="M61.6809 42.57C61.6809 42.57 45.8089 11.5286 35.6641 2.64453" stroke="white" stroke-width="0.5" stroke-miterlimit="10"/>
<path d="M17.9922 24.2517C17.9922 24.2517 31.6291 9.44491 40.0278 3.19434" stroke="white" stroke-width="0.5" stroke-miterlimit="10"/>
<path d="M41.4421 4.17773C27.374 5.9334 1.85156 18.8788 1.85156 18.8788" stroke="white" stroke-width="0.5" stroke-miterlimit="10"/>
<path d="M63.4532 35.3036C63.4532 35.3036 42.8112 5.93857 35.6641 3.79688" stroke="white" stroke-width="0.5" stroke-miterlimit="10"/>
<path d="M58.6392 31.264L36.125 1" stroke="white" stroke-width="0.5" stroke-miterlimit="10"/>
<path d="M1.03153 18.8789C1.03153 18.8789 9.7038 25.2141 18.9493 24.2517C18.9493 24.2517 56.8254 37.3557 63.4519 35.3039C63.4519 35.3039 54.0433 39.2541 47.2959 43.6115C40.5485 47.9689 35.3104 48.5453 34.7372 49.6136C34.1639 50.6818 34.7372 52.0831 34.7372 52.0831H29.01C29.01 52.0831 25.3865 34.3626 14.7736 27.5673C4.1607 20.7721 0.621319 19.8096 1.03153 18.8789Z" stroke="white" stroke-width="0.5" stroke-miterlimit="10"/>
<path d="M61.6797 40.7295V54.4681" stroke="white" stroke-width="0.5" stroke-miterlimit="10"/>
<path d="M57.9766 43.2783L101.575 46.3243" stroke="white" stroke-width="0.5" stroke-miterlimit="10"/>
<path d="M76.7031 54.4681V44.5" stroke="white" stroke-width="0.5" stroke-miterlimit="10"/>
<path d="M94.332 54.4681V45.8379" stroke="white" stroke-width="0.5" stroke-miterlimit="10"/>
<path d="M2.99414 19.3447C2.99414 19.3447 43.4893 32.7554 58.4619 31.4387C58.4619 31.4387 56.8737 33.6121 57.5732 34.8918" stroke="white" stroke-width="0.5" stroke-miterlimit="10"/>
<path d="M39.2227 4.53223L102.2 46.3244" stroke="white" stroke-width="0.5" stroke-miterlimit="10"/>
<path d="M38.0605 1.65625L87.5803 45.2834" stroke="white" stroke-width="0.5" stroke-miterlimit="10"/>
<path d="M213.988 27.488L223.26 21.4014L232.137 27.488H213.988Z" stroke="white" stroke-width="0.5" stroke-miterlimit="10"/>
<path d="M251.85 28.2866C251.492 27.927 195.467 28.2866 195.467 28.2866L223.661 13.501L251.85 28.2866Z" stroke="white" stroke-width="0.5" stroke-miterlimit="10"/>
<path d="M166.284 33.6221H161.824L187.973 20.8936H209.566" stroke="white" stroke-width="0.5" stroke-miterlimit="10"/>
<path d="M237.164 20.582H257.817L281.619 33.6226H279.347" stroke="white" stroke-width="0.5" stroke-miterlimit="10"/>
</svg>
