<svg width="263" height="97" viewBox="0 0 263 97" fill="none" xmlns="http://www.w3.org/2000/svg">
<path d="M69.851 56.3583C71.424 41.7701 60.873 28.6689 46.2846 27.0959C31.6963 25.523 18.5949 36.0738 17.0219 50.662C15.449 65.2501 26 78.3513 40.5884 79.9243C55.1767 81.4973 68.2781 70.9465 69.851 56.3583Z" stroke="white" stroke-width="0.5" stroke-miterlimit="10" stroke-linejoin="round"/>
<path d="M68.0285 56.0276C69.4235 42.4488 59.5467 30.3101 45.9681 28.9151C32.3895 27.5201 20.251 37.3971 18.856 50.9759C17.461 64.5547 27.3377 76.6934 40.9163 78.0884C54.495 79.4833 66.6335 69.6064 68.0285 56.0276Z" stroke="white" stroke-width="0.5" stroke-miterlimit="10" stroke-linejoin="round"/>
<path d="M13.8848 53.5059H72.9902" stroke="white" stroke-width="0.5" stroke-miterlimit="10" stroke-linejoin="round"/>
<path d="M14.8906 61.1551L71.9822 45.8574" stroke="white" stroke-width="0.5" stroke-miterlimit="10" stroke-linejoin="round"/>
<path d="M17.8438 68.2824L69.0309 38.7295" stroke="white" stroke-width="0.5" stroke-miterlimit="10" stroke-linejoin="round"/>
<path d="M22.541 74.4032L64.3349 32.6094" stroke="white" stroke-width="0.5" stroke-miterlimit="10" stroke-linejoin="round"/>
<path d="M28.6602 79.0999L58.213 27.9131" stroke="white" stroke-width="0.5" stroke-miterlimit="10" stroke-linejoin="round"/>
<path d="M50.6506 26.5771L32.5742 93.8222H54.3541L36.22 26.5771" stroke="white" stroke-width="0.5" stroke-miterlimit="10" stroke-linejoin="round"/>
<path d="M43.4375 83.0585L43.4378 23.9531" stroke="white" stroke-width="0.5" stroke-miterlimit="10" stroke-linejoin="round"/>
<path d="M58.2143 79.0999L28.6621 27.9131" stroke="white" stroke-width="0.5" stroke-miterlimit="10" stroke-linejoin="round"/>
<path d="M64.3361 74.4032L22.543 32.6094" stroke="white" stroke-width="0.5" stroke-miterlimit="10" stroke-linejoin="round"/>
<path d="M69.0314 68.2824L17.8457 38.7295" stroke="white" stroke-width="0.5" stroke-miterlimit="10" stroke-linejoin="round"/>
<path d="M71.9827 61.1551L14.8926 45.8574" stroke="white" stroke-width="0.5" stroke-miterlimit="10" stroke-linejoin="round"/>
<path d="M20.6486 79.87C26.4813 85.3266 34.5393 88.7016 43.4392 88.7016C52.3401 88.7016 60.3978 85.3259 66.2308 79.8686C67.442 78.7925 65.7857 77.3333 64.7015 78.4381C59.26 83.5294 51.7427 86.6786 43.4392 86.6786C35.136 86.6786 27.619 83.5298 22.1775 78.4392C21.0286 77.3694 19.4188 78.5036 20.6486 79.87Z" stroke="white" stroke-width="0.5" stroke-miterlimit="10" stroke-linejoin="round"/>
<path d="M20.6484 78.6811C26.4811 84.1376 34.5391 87.5127 43.439 87.5127C52.3399 87.5127 60.3976 84.1369 66.2305 78.6797" stroke="white" stroke-width="0.5" stroke-miterlimit="10" stroke-linejoin="round"/>
<path d="M60.0597 70.1257C69.2391 60.9463 69.2391 46.0635 60.0597 36.8841C50.8803 27.7047 35.9975 27.7047 26.8181 36.8841C17.6387 46.0635 17.6387 60.9463 26.8181 70.1257C35.9975 79.3051 50.8803 79.3051 60.0597 70.1257Z" stroke="white" stroke-width="0.5" stroke-miterlimit="10" stroke-linejoin="round"/>
<path d="M74.6643 53.5053C74.6643 54.4302 73.9146 55.1799 72.9894 55.1799C72.0642 55.1799 71.3145 54.4298 71.3145 53.5053C71.3145 52.5802 72.0642 51.8301 72.9894 51.8301C73.9146 51.8297 74.6643 52.5802 74.6643 53.5053Z" stroke="white" stroke-width="0.5" stroke-miterlimit="10" stroke-linejoin="round"/>
<path d="M15.5592 53.5053C15.5592 54.4302 14.8091 55.1799 13.8839 55.1799C12.9587 55.1799 12.209 54.4298 12.209 53.5053C12.209 52.5802 12.9591 51.8301 13.8839 51.8301C14.8094 51.8297 15.5592 52.5802 15.5592 53.5053Z" stroke="white" stroke-width="0.5" stroke-miterlimit="10" stroke-linejoin="round"/>
<path d="M73.6018 45.4235C73.8413 46.3168 73.3108 47.2353 72.4175 47.4749C71.5238 47.714 70.6053 47.1839 70.3661 46.2905C70.1266 45.3972 70.6568 44.4787 71.5501 44.2392C72.4434 43.9997 73.3623 44.5298 73.6018 45.4235Z" stroke="white" stroke-width="0.5" stroke-miterlimit="10" stroke-linejoin="round"/>
<path d="M16.5079 60.7205C16.7475 61.6138 16.2169 62.5327 15.3236 62.7719C14.43 63.0118 13.5118 62.4812 13.2723 61.5872C13.0331 60.6943 13.5629 59.7754 14.4566 59.5359C15.3502 59.2967 16.2688 59.8276 16.5079 60.7205Z" stroke="white" stroke-width="0.5" stroke-miterlimit="10" stroke-linejoin="round"/>
<path d="M70.481 37.8915C70.9436 38.6928 70.669 39.717 69.8682 40.1796C69.0666 40.6419 68.0427 40.3677 67.5804 39.5665C67.1175 38.7652 67.392 37.741 68.1932 37.278C68.9941 36.8161 70.0184 37.0903 70.481 37.8915Z" stroke="white" stroke-width="0.5" stroke-miterlimit="10" stroke-linejoin="round"/>
<path d="M19.294 67.444C19.7562 68.2452 19.4821 69.2699 18.6812 69.7321C17.88 70.1943 16.8553 69.9201 16.3928 69.1186C15.9302 68.3181 16.2044 67.2931 17.0059 66.8308C17.8068 66.3686 18.8311 66.6435 19.294 67.444Z" stroke="white" stroke-width="0.5" stroke-miterlimit="10" stroke-linejoin="round"/>
<path d="M65.5179 31.4246C66.1717 32.0787 66.1717 33.1391 65.5175 33.7932C64.863 34.4474 63.803 34.4474 63.1492 33.7932C62.4948 33.1394 62.4944 32.0787 63.1489 31.4246C63.803 30.7701 64.8634 30.7698 65.5179 31.4246Z" stroke="white" stroke-width="0.5" stroke-miterlimit="10" stroke-linejoin="round"/>
<path d="M23.7247 73.2174C24.3785 73.8723 24.3789 74.933 23.7247 75.5875C23.0706 76.2413 22.0099 76.2413 21.3561 75.5871C20.7016 74.9333 20.7016 73.8723 21.3561 73.2188C22.0099 72.564 23.0709 72.564 23.7247 73.2174Z" stroke="white" stroke-width="0.5" stroke-miterlimit="10" stroke-linejoin="round"/>
<path d="M59.0501 26.4612C59.8513 26.9234 60.1255 27.9477 59.6632 28.7493C59.2003 29.5505 58.176 29.8247 57.3751 29.3621C56.5739 28.8995 56.299 27.8756 56.762 27.074C57.2246 26.2732 58.2488 25.9983 59.0501 26.4612Z" stroke="white" stroke-width="0.5" stroke-miterlimit="10" stroke-linejoin="round"/>
<path d="M29.4988 77.6481C30.3 78.1104 30.5746 79.1354 30.1123 79.9366C29.6497 80.7371 28.6251 81.012 27.8243 80.5491C27.023 80.0875 26.7481 79.0622 27.2114 78.2613C27.6737 77.4604 28.698 77.1863 29.4988 77.6481Z" stroke="white" stroke-width="0.5" stroke-miterlimit="10" stroke-linejoin="round"/>
<path d="M51.5187 23.3417C52.412 23.5812 52.9418 24.4994 52.703 25.3931C52.4635 26.2864 51.545 26.8165 50.652 26.5767C49.7583 26.3375 49.2282 25.4193 49.4677 24.526C49.7069 23.6327 50.625 23.1022 51.5187 23.3417Z" stroke="white" stroke-width="0.5" stroke-miterlimit="10" stroke-linejoin="round"/>
<path d="M36.2218 80.4324C37.1155 80.6723 37.6463 81.5908 37.4068 82.4841C37.1669 83.3778 36.2488 83.9076 35.3551 83.6677C34.4618 83.4289 33.9313 82.5107 34.1708 81.6167C34.4107 80.7234 35.3288 80.1932 36.2218 80.4324Z" stroke="white" stroke-width="0.5" stroke-miterlimit="10" stroke-linejoin="round"/>
<path d="M43.4366 22.2783C44.3615 22.2783 45.1116 23.0284 45.1119 23.9536C45.1116 24.8788 44.3615 25.6282 43.4366 25.6282C42.5115 25.6282 41.7617 24.8784 41.7617 23.9536C41.7617 23.0288 42.5111 22.278 43.4366 22.2783Z" stroke="white" stroke-width="0.5" stroke-miterlimit="10" stroke-linejoin="round"/>
<path d="M43.4363 81.3828C44.3615 81.3828 45.1119 82.1325 45.1119 83.0577C45.1116 83.9826 44.3618 84.733 43.4366 84.7316C42.5115 84.7323 41.7617 83.9822 41.7617 83.0577C41.7621 82.1325 42.5118 81.3825 43.4363 81.3828Z" stroke="white" stroke-width="0.5" stroke-miterlimit="10" stroke-linejoin="round"/>
<path d="M35.3553 23.3416C36.2486 23.1024 37.1668 23.6326 37.407 24.5262C37.6462 25.4203 37.1153 26.3381 36.2223 26.5769C35.3287 26.8171 34.4105 26.2866 34.171 25.3929C33.9311 24.4996 34.4609 23.5814 35.3553 23.3416Z" stroke="white" stroke-width="0.5" stroke-miterlimit="10" stroke-linejoin="round"/>
<path d="M50.6517 80.4335C51.5454 80.194 52.4639 80.7238 52.7034 81.6175C52.9426 82.5122 52.4124 83.43 51.5188 83.6685C50.6255 83.9084 49.7069 83.3786 49.4674 82.4849C49.2286 81.5912 49.7588 80.6727 50.6517 80.4335Z" stroke="white" stroke-width="0.5" stroke-miterlimit="10" stroke-linejoin="round"/>
<path d="M27.8227 26.4617C28.6239 25.9995 29.6478 26.2744 30.1108 27.0749C30.573 27.8768 30.2984 28.9007 29.4976 29.3626C28.6964 29.8255 27.6724 29.551 27.2091 28.7498C26.7466 27.9489 27.0207 26.9246 27.8227 26.4617Z" stroke="white" stroke-width="0.5" stroke-miterlimit="10" stroke-linejoin="round"/>
<path d="M57.3766 77.6485C58.1782 77.1863 59.2024 77.4598 59.665 78.2614C60.1276 79.0633 59.8534 80.0872 59.0515 80.5484C58.2507 81.0113 57.2264 80.7372 56.7638 79.9359C56.3012 79.1347 56.5757 78.1097 57.3766 77.6485Z" stroke="white" stroke-width="0.5" stroke-miterlimit="10" stroke-linejoin="round"/>
<path d="M21.3544 31.4249C22.0085 30.7711 23.0692 30.7711 23.723 31.4249C24.3771 32.0794 24.3771 33.1398 23.723 33.7932C23.0689 34.448 22.0082 34.448 21.3537 33.7935C20.7002 33.1401 20.6992 32.0791 21.3544 31.4249Z" stroke="white" stroke-width="0.5" stroke-miterlimit="10" stroke-linejoin="round"/>
<path d="M63.1488 73.2188C63.8026 72.5643 64.8633 72.5636 65.5174 73.2181C66.1716 73.8729 66.1719 74.9329 65.5171 75.5867C64.8636 76.2412 63.8026 76.2412 63.1488 75.587C62.4947 74.9322 62.4947 73.8715 63.1488 73.2188Z" stroke="white" stroke-width="0.5" stroke-miterlimit="10" stroke-linejoin="round"/>
<path d="M16.3931 37.8921C16.8557 37.0909 17.8799 36.8171 18.6808 37.2793C19.4824 37.7423 19.7566 38.7665 19.294 39.5667C18.8314 40.3686 17.8071 40.6428 17.0059 40.1802C16.2047 39.7183 15.9298 38.6941 16.3931 37.8921Z" stroke="white" stroke-width="0.5" stroke-miterlimit="10" stroke-linejoin="round"/>
<path d="M67.5785 67.4449C68.0411 66.6433 69.0653 66.3688 69.8666 66.8307C70.6681 67.2946 70.9423 68.3182 70.4787 69.1187C70.0168 69.9203 68.9922 70.1945 68.1913 69.7323C67.3901 69.2693 67.1155 68.2447 67.5785 67.4449Z" stroke="white" stroke-width="0.5" stroke-miterlimit="10" stroke-linejoin="round"/>
<path d="M13.2725 45.4232C13.5117 44.5299 14.4302 44.0001 15.3232 44.2389C16.2172 44.4791 16.747 45.3973 16.5075 46.2899C16.2683 47.1839 15.3498 47.7141 14.4561 47.4749C13.5632 47.2358 13.0326 46.3176 13.2725 45.4232Z" stroke="white" stroke-width="0.5" stroke-miterlimit="10" stroke-linejoin="round"/>
<path d="M70.3646 60.7224C70.6038 59.828 71.5223 59.2975 72.4156 59.537C73.3096 59.7772 73.8394 60.6951 73.5992 61.588C73.3607 62.482 72.4419 63.0119 71.5486 62.773C70.6545 62.5328 70.124 61.6139 70.3646 60.7224Z" stroke="white" stroke-width="0.5" stroke-miterlimit="10" stroke-linejoin="round"/>
<path d="M36.0773 87.9111L34.6094 93.8226" stroke="white" stroke-width="0.5" stroke-miterlimit="10" stroke-linejoin="round"/>
<path d="M50.8242 87.8223L52.2922 93.7337" stroke="white" stroke-width="0.5" stroke-miterlimit="10" stroke-linejoin="round"/>
<path d="M26.9844 79.207H30.3304" stroke="white" stroke-width="0.5" stroke-miterlimit="10" stroke-linejoin="round"/>
<path d="M20.8691 74.4023H24.2148" stroke="white" stroke-width="0.5" stroke-miterlimit="10" stroke-linejoin="round"/>
<path d="M16.1699 68.2812H19.5156" stroke="white" stroke-width="0.5" stroke-miterlimit="10" stroke-linejoin="round"/>
<path d="M13.2188 61.1543H16.5644" stroke="white" stroke-width="0.5" stroke-miterlimit="10" stroke-linejoin="round"/>
<path d="M12.2129 53.458H15.5585" stroke="white" stroke-width="0.5" stroke-miterlimit="10" stroke-linejoin="round"/>
<path d="M34.1152 82.1699H37.4609" stroke="white" stroke-width="0.5" stroke-miterlimit="10" stroke-linejoin="round"/>
<path d="M41.793 83.0957H45.1386" stroke="white" stroke-width="0.5" stroke-miterlimit="10" stroke-linejoin="round"/>
<path d="M49.4141 82.1699H52.7597" stroke="white" stroke-width="0.5" stroke-miterlimit="10" stroke-linejoin="round"/>
<path d="M56.541 79.2061H59.8867" stroke="white" stroke-width="0.5" stroke-miterlimit="10" stroke-linejoin="round"/>
<path d="M62.6602 74.4033H66.0061" stroke="white" stroke-width="0.5" stroke-miterlimit="10" stroke-linejoin="round"/>
<path d="M67.3574 68.2812H70.7034" stroke="white" stroke-width="0.5" stroke-miterlimit="10" stroke-linejoin="round"/>
<path d="M70.3105 61.1543H73.6562" stroke="white" stroke-width="0.5" stroke-miterlimit="10" stroke-linejoin="round"/>
<path d="M59.8886 27.8428H56.543" stroke="white" stroke-width="0.5" stroke-miterlimit="10" stroke-linejoin="round"/>
<path d="M66.0061 32.6475H62.6602" stroke="white" stroke-width="0.5" stroke-miterlimit="10" stroke-linejoin="round"/>
<path d="M70.7031 38.7676H67.3574" stroke="white" stroke-width="0.5" stroke-miterlimit="10" stroke-linejoin="round"/>
<path d="M73.6562 45.8945H70.3105" stroke="white" stroke-width="0.5" stroke-miterlimit="10" stroke-linejoin="round"/>
<path d="M52.76 24.8799H49.4141" stroke="white" stroke-width="0.5" stroke-miterlimit="10" stroke-linejoin="round"/>
<path d="M45.0804 23.9531H41.7344" stroke="white" stroke-width="0.5" stroke-miterlimit="10" stroke-linejoin="round"/>
<path d="M37.4628 24.8799H34.1172" stroke="white" stroke-width="0.5" stroke-miterlimit="10" stroke-linejoin="round"/>
<path d="M30.3339 27.8428H26.9883" stroke="white" stroke-width="0.5" stroke-miterlimit="10" stroke-linejoin="round"/>
<path d="M24.2128 32.6465H20.8672" stroke="white" stroke-width="0.5" stroke-miterlimit="10" stroke-linejoin="round"/>
<path d="M19.5156 38.7676H16.1699" stroke="white" stroke-width="0.5" stroke-miterlimit="10" stroke-linejoin="round"/>
<path d="M16.5644 45.8945H13.2188" stroke="white" stroke-width="0.5" stroke-miterlimit="10" stroke-linejoin="round"/>
<path d="M71.3164 53.458H74.662" stroke="white" stroke-width="0.5" stroke-miterlimit="10" stroke-linejoin="round"/>
<path d="M149.007 85.5674H134.359V93.8513H149.007V85.5674Z" stroke="white" stroke-width="0.5" stroke-miterlimit="10" stroke-linejoin="round"/>
<path d="M187.851 85.5674H173.203V93.8513H187.851V85.5674Z" stroke="white" stroke-width="0.5" stroke-miterlimit="10" stroke-linejoin="round"/>
<path d="M148.066 83.885L160.42 79.0742" stroke="white" stroke-width="0.5" stroke-miterlimit="10" stroke-linejoin="round"/>
<path d="M93.3848 85.5674H147.941" stroke="white" stroke-width="0.5" stroke-miterlimit="10" stroke-linejoin="round"/>
<path d="M176.402 41.7676H174.455V85.5673H176.402V41.7676Z" stroke="white" stroke-width="0.5" stroke-miterlimit="10" stroke-linejoin="round"/>
<path d="M186.785 41.7676H184.838V85.5673H186.785V41.7676Z" stroke="white" stroke-width="0.5" stroke-miterlimit="10" stroke-linejoin="round"/>
<path d="M175.427 38.7549L173.805 41.7678H177.049L175.427 38.7549Z" stroke="white" stroke-width="0.5" stroke-miterlimit="10" stroke-linejoin="round"/>
<path d="M185.812 38.7549L184.189 41.7678H187.434L185.812 38.7549Z" stroke="white" stroke-width="0.5" stroke-miterlimit="10" stroke-linejoin="round"/>
<path d="M173.203 77.2969H187.851" stroke="white" stroke-width="0.5" stroke-miterlimit="10" stroke-linejoin="round"/>
<path d="M173.203 67.6318H187.851" stroke="white" stroke-width="0.5" stroke-miterlimit="10" stroke-linejoin="round"/>
<path d="M173.203 57.9678H187.851" stroke="white" stroke-width="0.5" stroke-miterlimit="10" stroke-linejoin="round"/>
<path d="M173.203 48.3027H187.851" stroke="white" stroke-width="0.5" stroke-miterlimit="10" stroke-linejoin="round"/>
<path d="M177.375 48.3033L180.527 33.9805L183.841 48.3033" stroke="white" stroke-width="0.5" stroke-miterlimit="10" stroke-linejoin="round"/>
<path d="M182.764 48.3026V45.1187L180.608 43.7285L178.453 45.1187V48.3026" stroke="white" stroke-width="0.5" stroke-miterlimit="10" stroke-linejoin="round"/>
<path d="M178.26 51.9121C177.874 51.9121 177.561 52.2252 177.561 52.6111V55.652H178.959V52.6111C178.959 52.2248 178.646 51.9121 178.26 51.9121Z" stroke="white" stroke-width="0.5" stroke-miterlimit="10" stroke-linejoin="round"/>
<path d="M180.609 51.9121C180.223 51.9121 179.91 52.2252 179.91 52.6111V55.652H181.308V52.6111C181.308 52.2248 180.995 51.9121 180.609 51.9121Z" stroke="white" stroke-width="0.5" stroke-miterlimit="10" stroke-linejoin="round"/>
<path d="M182.957 51.9121C182.571 51.9121 182.258 52.2252 182.258 52.6111V55.652H183.656V52.6111C183.656 52.2248 183.343 51.9121 182.957 51.9121Z" stroke="white" stroke-width="0.5" stroke-miterlimit="10" stroke-linejoin="round"/>
<path d="M178.26 61.7969C177.874 61.7969 177.561 62.1103 177.561 62.4962V65.5375H178.959V62.4962C178.959 62.1103 178.646 61.7969 178.26 61.7969Z" stroke="white" stroke-width="0.5" stroke-miterlimit="10" stroke-linejoin="round"/>
<path d="M180.609 61.7969C180.223 61.7969 179.91 62.1103 179.91 62.4962V65.5375H181.308V62.4962C181.308 62.1103 180.995 61.7969 180.609 61.7969Z" stroke="white" stroke-width="0.5" stroke-miterlimit="10" stroke-linejoin="round"/>
<path d="M182.957 61.7969C182.571 61.7969 182.258 62.1103 182.258 62.4962V65.5375H183.656V62.4962C183.656 62.1103 183.343 61.7969 182.957 61.7969Z" stroke="white" stroke-width="0.5" stroke-miterlimit="10" stroke-linejoin="round"/>
<path d="M178.26 71.6826C177.874 71.6826 177.561 71.996 177.561 72.3816V75.4229H178.959V72.3816C178.959 71.9957 178.646 71.6826 178.26 71.6826Z" stroke="white" stroke-width="0.5" stroke-miterlimit="10" stroke-linejoin="round"/>
<path d="M180.609 71.6826C180.223 71.6826 179.91 71.996 179.91 72.3816V75.4229H181.308V72.3816C181.308 71.9957 180.995 71.6826 180.609 71.6826Z" stroke="white" stroke-width="0.5" stroke-miterlimit="10" stroke-linejoin="round"/>
<path d="M182.957 71.6826C182.571 71.6826 182.258 71.996 182.258 72.3816V75.4229H183.656V72.3816C183.656 71.9957 183.343 71.6826 182.957 71.6826Z" stroke="white" stroke-width="0.5" stroke-miterlimit="10" stroke-linejoin="round"/>
<path d="M137.56 41.7676H135.613V85.5673H137.56V41.7676Z" stroke="white" stroke-width="0.5" stroke-miterlimit="10" stroke-linejoin="round"/>
<path d="M147.943 41.7676H145.996V85.5673H147.943V41.7676Z" stroke="white" stroke-width="0.5" stroke-miterlimit="10" stroke-linejoin="round"/>
<path d="M136.585 38.7549L134.963 41.7678H138.207L136.585 38.7549Z" stroke="white" stroke-width="0.5" stroke-miterlimit="10" stroke-linejoin="round"/>
<path d="M146.968 38.7549L145.346 41.7678H148.59L146.968 38.7549Z" stroke="white" stroke-width="0.5" stroke-miterlimit="10" stroke-linejoin="round"/>
<path d="M134.359 77.2969H149.007" stroke="white" stroke-width="0.5" stroke-miterlimit="10" stroke-linejoin="round"/>
<path d="M134.359 67.6318H149.007" stroke="white" stroke-width="0.5" stroke-miterlimit="10" stroke-linejoin="round"/>
<path d="M134.359 57.9678H149.007" stroke="white" stroke-width="0.5" stroke-miterlimit="10" stroke-linejoin="round"/>
<path d="M134.359 48.3027H149.007" stroke="white" stroke-width="0.5" stroke-miterlimit="10" stroke-linejoin="round"/>
<path d="M138.531 48.3033L141.683 33.9805L144.997 48.3033" stroke="white" stroke-width="0.5" stroke-miterlimit="10" stroke-linejoin="round"/>
<path d="M143.92 48.3026V45.1187L141.765 43.7285L139.609 45.1187V48.3026" stroke="white" stroke-width="0.5" stroke-miterlimit="10" stroke-linejoin="round"/>
<path d="M139.416 51.9121C139.03 51.9121 138.717 52.2252 138.717 52.6111V55.652H140.114V52.6111C140.114 52.2248 139.802 51.9121 139.416 51.9121Z" stroke="white" stroke-width="0.5" stroke-miterlimit="10" stroke-linejoin="round"/>
<path d="M141.766 51.9121C141.379 51.9121 141.066 52.2252 141.066 52.6111V55.652H142.464V52.6111C142.464 52.2248 142.152 51.9121 141.766 51.9121Z" stroke="white" stroke-width="0.5" stroke-miterlimit="10" stroke-linejoin="round"/>
<path d="M144.113 51.9121C143.727 51.9121 143.414 52.2252 143.414 52.6111V55.652H144.812V52.6111C144.812 52.2248 144.5 51.9121 144.113 51.9121Z" stroke="white" stroke-width="0.5" stroke-miterlimit="10" stroke-linejoin="round"/>
<path d="M139.416 61.7969C139.03 61.7969 138.717 62.1103 138.717 62.4962V65.5375H140.114V62.4962C140.114 62.1103 139.802 61.7969 139.416 61.7969Z" stroke="white" stroke-width="0.5" stroke-miterlimit="10" stroke-linejoin="round"/>
<path d="M141.766 61.7969C141.379 61.7969 141.066 62.1103 141.066 62.4962V65.5375H142.464V62.4962C142.464 62.1103 142.152 61.7969 141.766 61.7969Z" stroke="white" stroke-width="0.5" stroke-miterlimit="10" stroke-linejoin="round"/>
<path d="M144.113 61.7969C143.727 61.7969 143.414 62.1103 143.414 62.4962V65.5375H144.812V62.4962C144.812 62.1103 144.5 61.7969 144.113 61.7969Z" stroke="white" stroke-width="0.5" stroke-miterlimit="10" stroke-linejoin="round"/>
<path d="M139.416 71.6826C139.03 71.6826 138.717 71.996 138.717 72.3816V75.4229H140.114V72.3816C140.114 71.9957 139.802 71.6826 139.416 71.6826Z" stroke="white" stroke-width="0.5" stroke-miterlimit="10" stroke-linejoin="round"/>
<path d="M141.766 71.6826C141.379 71.6826 141.066 71.996 141.066 72.3816V75.4229H142.464V72.3816C142.464 71.9957 142.152 71.6826 141.766 71.6826Z" stroke="white" stroke-width="0.5" stroke-miterlimit="10" stroke-linejoin="round"/>
<path d="M144.113 71.6826C143.727 71.6826 143.414 71.996 143.414 72.3816V75.4229H144.812V72.3816C144.812 71.9957 144.5 71.6826 144.113 71.6826Z" stroke="white" stroke-width="0.5" stroke-miterlimit="10" stroke-linejoin="round"/>
<path d="M174.455 50.2969H147.941V52.336H174.455V50.2969Z" stroke="white" stroke-width="0.5" stroke-miterlimit="10" stroke-linejoin="round"/>
<path d="M135.612 83.7627H93.3848V85.5672H135.612V83.7627Z" stroke="white" stroke-width="0.5" stroke-miterlimit="10" stroke-linejoin="round"/>
<path d="M148.721 85.5669C148.721 85.5669 151.651 82.4892 160.419 79.0742" stroke="white" stroke-width="0.5" stroke-miterlimit="10" stroke-linejoin="round"/>
<path d="M174.285 83.885L161.932 79.0742" stroke="white" stroke-width="0.5" stroke-miterlimit="10" stroke-linejoin="round"/>
<path d="M173.63 85.5669C173.63 85.5669 170.699 82.4892 161.932 79.0742" stroke="white" stroke-width="0.5" stroke-miterlimit="10" stroke-linejoin="round"/>
<path d="M135.612 48.6436C135.612 48.6436 127.176 76.5422 93.3848 83.7629" stroke="white" stroke-width="0.5" stroke-miterlimit="10" stroke-linejoin="round"/>
<path d="M107.096 79.2061V83.7626" stroke="white" stroke-width="0.5" stroke-miterlimit="10" stroke-linejoin="round"/>
<path d="M114.498 75.0576V83.7631" stroke="white" stroke-width="0.5" stroke-miterlimit="10" stroke-linejoin="round"/>
<path d="M122.549 68.5703V83.7622" stroke="white" stroke-width="0.5" stroke-miterlimit="10" stroke-linejoin="round"/>
<path d="M129.633 60.1904V83.7629" stroke="white" stroke-width="0.5" stroke-miterlimit="10" stroke-linejoin="round"/>
<path d="M229.011 85.5674H174.455" stroke="white" stroke-width="0.5" stroke-miterlimit="10" stroke-linejoin="round"/>
<path d="M229.012 83.7627H186.785V85.5672H229.012V83.7627Z" stroke="white" stroke-width="0.5" stroke-miterlimit="10" stroke-linejoin="round"/>
<path d="M186.785 48.6436C186.785 48.6436 195.222 76.5422 229.012 83.7629" stroke="white" stroke-width="0.5" stroke-miterlimit="10" stroke-linejoin="round"/>
<path d="M215.301 79.2061V83.7626" stroke="white" stroke-width="0.5" stroke-miterlimit="10" stroke-linejoin="round"/>
<path d="M207.898 75.0576V83.7631" stroke="white" stroke-width="0.5" stroke-miterlimit="10" stroke-linejoin="round"/>
<path d="M199.848 68.5703V83.7622" stroke="white" stroke-width="0.5" stroke-miterlimit="10" stroke-linejoin="round"/>
<path d="M192.764 60.1904V83.7629" stroke="white" stroke-width="0.5" stroke-miterlimit="10" stroke-linejoin="round"/>
<path d="M130.656 58.6533V83.7627" stroke="white" stroke-width="0.5" stroke-miterlimit="10" stroke-linejoin="round"/>
<path d="M123.492 67.6318V83.7626" stroke="white" stroke-width="0.5" stroke-miterlimit="10" stroke-linejoin="round"/>
<path d="M191.742 58.6533V83.8853" stroke="white" stroke-width="0.5" stroke-miterlimit="10" stroke-linejoin="round"/>
<path d="M198.971 67.7012V83.7633" stroke="white" stroke-width="0.5" stroke-miterlimit="10" stroke-linejoin="round"/>
<path d="M137.558 87.2061H134.359" stroke="white" stroke-width="0.5" stroke-miterlimit="10" stroke-linejoin="round"/>
<path d="M139.152 88.3887H134.359" stroke="white" stroke-width="0.5" stroke-miterlimit="10" stroke-linejoin="round"/>
<path d="M143.266 88.3887H149.006" stroke="white" stroke-width="0.5" stroke-miterlimit="10" stroke-linejoin="round"/>
<path d="M147.207 87.2061H149.008" stroke="white" stroke-width="0.5" stroke-miterlimit="10" stroke-linejoin="round"/>
<path d="M134.359 91.9775H149.007" stroke="white" stroke-width="0.5" stroke-miterlimit="10" stroke-linejoin="round"/>
<path d="M146.969 90.6641H149.008" stroke="white" stroke-width="0.5" stroke-miterlimit="10" stroke-linejoin="round"/>
<path d="M136.756 90.6641H134.359" stroke="white" stroke-width="0.5" stroke-miterlimit="10" stroke-linejoin="round"/>
<path d="M137.559 59.1191H145.994" stroke="white" stroke-width="0.5" stroke-miterlimit="10" stroke-linejoin="round"/>
<path d="M137.559 68.8154H145.994" stroke="white" stroke-width="0.5" stroke-miterlimit="10" stroke-linejoin="round"/>
<path d="M137.559 78.3643H145.994" stroke="white" stroke-width="0.5" stroke-miterlimit="10" stroke-linejoin="round"/>
<path d="M137.559 49.4082H145.994" stroke="white" stroke-width="0.5" stroke-miterlimit="10" stroke-linejoin="round"/>
<path d="M146.969 41.7676V85.5673" stroke="white" stroke-width="0.5" stroke-miterlimit="10" stroke-linejoin="round"/>
<path d="M136.586 41.7676V85.5673" stroke="white" stroke-width="0.5" stroke-miterlimit="10" stroke-linejoin="round"/>
<path d="M142.464 46.0156H141.066V48.3027H142.464V46.0156Z" stroke="white" stroke-width="0.5" stroke-miterlimit="10" stroke-linejoin="round"/>
<path d="M176.402 87.2061H173.203" stroke="white" stroke-width="0.5" stroke-miterlimit="10" stroke-linejoin="round"/>
<path d="M177.997 88.3887H173.205" stroke="white" stroke-width="0.5" stroke-miterlimit="10" stroke-linejoin="round"/>
<path d="M182.111 88.3887H187.852" stroke="white" stroke-width="0.5" stroke-miterlimit="10" stroke-linejoin="round"/>
<path d="M186.051 87.2061H187.851" stroke="white" stroke-width="0.5" stroke-miterlimit="10" stroke-linejoin="round"/>
<path d="M173.205 91.9775H187.852" stroke="white" stroke-width="0.5" stroke-miterlimit="10" stroke-linejoin="round"/>
<path d="M185.812 90.6641H187.851" stroke="white" stroke-width="0.5" stroke-miterlimit="10" stroke-linejoin="round"/>
<path d="M175.601 90.6641H173.205" stroke="white" stroke-width="0.5" stroke-miterlimit="10" stroke-linejoin="round"/>
<path d="M176.402 59.1191H184.838" stroke="white" stroke-width="0.5" stroke-miterlimit="10" stroke-linejoin="round"/>
<path d="M176.402 68.8154H184.838" stroke="white" stroke-width="0.5" stroke-miterlimit="10" stroke-linejoin="round"/>
<path d="M176.402 78.3643H184.838" stroke="white" stroke-width="0.5" stroke-miterlimit="10" stroke-linejoin="round"/>
<path d="M176.402 49.4092H184.838" stroke="white" stroke-width="0.5" stroke-miterlimit="10" stroke-linejoin="round"/>
<path d="M185.812 41.7676V85.5673" stroke="white" stroke-width="0.5" stroke-miterlimit="10" stroke-linejoin="round"/>
<path d="M175.43 41.7676V85.5673" stroke="white" stroke-width="0.5" stroke-miterlimit="10" stroke-linejoin="round"/>
<path d="M181.308 46.0166H179.91V48.3036H181.308V46.0166Z" stroke="white" stroke-width="0.5" stroke-miterlimit="10" stroke-linejoin="round"/>
<path d="M148.066 53.3584H174.286" stroke="white" stroke-width="0.5" stroke-miterlimit="10" stroke-linejoin="round"/>
<path d="M98.5799 93.8706C103.81 76.7096 97.7079 38.668 88.2936 38.668C78.8793 38.668 72.7774 76.7096 78.0074 93.8706H98.5799Z" stroke="white" stroke-width="0.5" stroke-miterlimit="10" stroke-linejoin="round"/>
<path d="M76.084 81.832L84.8074 93.8702" stroke="white" stroke-width="0.5" stroke-miterlimit="10" stroke-linejoin="round"/>
<path d="M76.2715 71.7041L92.0426 93.8706" stroke="white" stroke-width="0.5" stroke-miterlimit="10" stroke-linejoin="round"/>
<path d="M76.2715 79.207L86.7044 93.8709" stroke="white" stroke-width="0.5" stroke-miterlimit="10" stroke-linejoin="round"/>
<path d="M76.5 68.666L94.4839 93.871" stroke="white" stroke-width="0.5" stroke-miterlimit="10" stroke-linejoin="round"/>
<path d="M76.7656 65.9922L96.651 93.8225" stroke="white" stroke-width="0.5" stroke-miterlimit="10" stroke-linejoin="round"/>
<path d="M78.7676 54.4785L100.228 84.5574" stroke="white" stroke-width="0.5" stroke-miterlimit="10" stroke-linejoin="round"/>
<path d="M79.3184 52.3389L100.391 82.1694" stroke="white" stroke-width="0.5" stroke-miterlimit="10" stroke-linejoin="round"/>
<path d="M85.3594 39.9355L98.7143 58.6538" stroke="white" stroke-width="0.5" stroke-miterlimit="10" stroke-linejoin="round"/>
<path d="M95.2383 51.1309L97.9172 54.8862" stroke="white" stroke-width="0.5" stroke-miterlimit="10" stroke-linejoin="round"/>
<path d="M86.709 39.1777L93.2434 48.3357" stroke="white" stroke-width="0.5" stroke-miterlimit="10" stroke-linejoin="round"/>
<path d="M83.2363 42.5508L99.7891 65.75" stroke="white" stroke-width="0.5" stroke-miterlimit="10" stroke-linejoin="round"/>
<path d="M87.3965 50.9365L100.101 68.8154" stroke="white" stroke-width="0.5" stroke-miterlimit="10" stroke-linejoin="round"/>
<path d="M82.4375 43.959L85.4067 48.137" stroke="white" stroke-width="0.5" stroke-miterlimit="10" stroke-linejoin="round"/>
<path d="M77.4863 60.8486L99.2361 91.3488" stroke="white" stroke-width="0.5" stroke-miterlimit="10" stroke-linejoin="round"/>
<path d="M96.2813 49.6689L94.2867 46.873L90.2974 52.4644L86.3081 46.873L82.3185 52.4644L80.3242 49.6689" stroke="white" stroke-width="0.5" stroke-miterlimit="10" stroke-linejoin="round"/>
<path d="M96.2813 49.6689L94.2867 52.4644L90.2974 46.873L86.3081 52.4644L82.3185 46.873L80.3242 49.6689" stroke="white" stroke-width="0.5" stroke-miterlimit="10" stroke-linejoin="round"/>
<path d="M202.892 58.5H200.959V93.7479H202.892V58.5Z" stroke="white" stroke-width="0.5" stroke-miterlimit="10" stroke-linejoin="round"/>
<path d="M213.254 58.5H211.32V93.7479H213.254V58.5Z" stroke="white" stroke-width="0.5" stroke-miterlimit="10" stroke-linejoin="round"/>
<path d="M201.926 58.5004V55.4619" stroke="white" stroke-width="0.5" stroke-miterlimit="10" stroke-linejoin="round"/>
<path d="M201.926 54.5336V53.3584" stroke="white" stroke-width="0.5" stroke-miterlimit="10" stroke-linejoin="round"/>
<path d="M212.287 58.5004V55.4619" stroke="white" stroke-width="0.5" stroke-miterlimit="10" stroke-linejoin="round"/>
<path d="M212.287 54.5336V53.3584" stroke="white" stroke-width="0.5" stroke-miterlimit="10" stroke-linejoin="round"/>
<path d="M211.321 65.2051H202.893V73.3251H211.321V65.2051Z" stroke="white" stroke-width="0.5" stroke-miterlimit="10" stroke-linejoin="round"/>
<path d="M211.321 73.3252H202.893V81.4449H211.321V73.3252Z" stroke="white" stroke-width="0.5" stroke-miterlimit="10" stroke-linejoin="round"/>
<path d="M211.321 81.4453H202.893V89.5653H211.321V81.4453Z" stroke="white" stroke-width="0.5" stroke-miterlimit="10" stroke-linejoin="round"/>
<path d="M209.156 58.5928H205.058L202.893 65.2056H211.321L209.156 58.5928Z" stroke="white" stroke-width="0.5" stroke-miterlimit="10" stroke-linejoin="round"/>
<path d="M207.106 67.7012C205.867 67.7012 204.863 68.7048 204.863 69.9437V71.3704H209.349V69.9437C209.348 68.7048 208.344 67.7012 207.106 67.7012Z" stroke="white" stroke-width="0.5" stroke-miterlimit="10" stroke-linejoin="round"/>
<path d="M209.349 75.335H204.863V79.4349H209.349V75.335Z" stroke="white" stroke-width="0.5" stroke-miterlimit="10" stroke-linejoin="round"/>
<path d="M207.105 75.335V79.4349" stroke="white" stroke-width="0.5" stroke-miterlimit="10" stroke-linejoin="round"/>
<path d="M218.126 75.335H215.535V79.4349H218.126V75.335Z" stroke="white" stroke-width="0.5" stroke-miterlimit="10" stroke-linejoin="round"/>
<path d="M216.83 75.335V79.4349" stroke="white" stroke-width="0.5" stroke-miterlimit="10" stroke-linejoin="round"/>
<path d="M218.126 83.4551H215.535V87.5547H218.126V83.4551Z" stroke="white" stroke-width="0.5" stroke-miterlimit="10" stroke-linejoin="round"/>
<path d="M216.83 83.4551V87.5547" stroke="white" stroke-width="0.5" stroke-miterlimit="10" stroke-linejoin="round"/>
<path d="M226.174 75.335H223.584V79.4349H226.174V75.335Z" stroke="white" stroke-width="0.5" stroke-miterlimit="10" stroke-linejoin="round"/>
<path d="M224.879 75.335V79.4349" stroke="white" stroke-width="0.5" stroke-miterlimit="10" stroke-linejoin="round"/>
<path d="M226.174 83.4551H223.584V87.5547H226.174V83.4551Z" stroke="white" stroke-width="0.5" stroke-miterlimit="10" stroke-linejoin="round"/>
<path d="M224.879 83.4551V87.5547" stroke="white" stroke-width="0.5" stroke-miterlimit="10" stroke-linejoin="round"/>
<path d="M234.223 75.335H231.633V79.4349H234.223V75.335Z" stroke="white" stroke-width="0.5" stroke-miterlimit="10" stroke-linejoin="round"/>
<path d="M232.93 75.335V79.4349" stroke="white" stroke-width="0.5" stroke-miterlimit="10" stroke-linejoin="round"/>
<path d="M234.223 83.4551H231.633V87.5547H234.223V83.4551Z" stroke="white" stroke-width="0.5" stroke-miterlimit="10" stroke-linejoin="round"/>
<path d="M232.93 83.4551V87.5547" stroke="white" stroke-width="0.5" stroke-miterlimit="10" stroke-linejoin="round"/>
<path d="M209.349 83.4551H204.863V87.5547H209.349V83.4551Z" stroke="white" stroke-width="0.5" stroke-miterlimit="10" stroke-linejoin="round"/>
<path d="M207.105 83.4551V87.5547" stroke="white" stroke-width="0.5" stroke-miterlimit="10" stroke-linejoin="round"/>
<path d="M207.105 71.3704V67.7012" stroke="white" stroke-width="0.5" stroke-miterlimit="10" stroke-linejoin="round"/>
<path d="M206.566 63.7101L205.631 61.5449L204.697 63.7101H206.566Z" stroke="white" stroke-width="0.5" stroke-miterlimit="10" stroke-linecap="round" stroke-linejoin="round"/>
<path d="M209.463 63.7101L208.528 61.5449L207.594 63.7101H209.463Z" stroke="white" stroke-width="0.5" stroke-miterlimit="10" stroke-linecap="round" stroke-linejoin="round"/>
<path d="M238.439 58.5H236.506V93.7479H238.439V58.5Z" stroke="white" stroke-width="0.5" stroke-miterlimit="10" stroke-linejoin="round"/>
<path d="M248.801 58.5H246.867V93.7479H248.801V58.5Z" stroke="white" stroke-width="0.5" stroke-miterlimit="10" stroke-linejoin="round"/>
<path d="M237.473 58.5004V55.4619" stroke="white" stroke-width="0.5" stroke-miterlimit="10" stroke-linejoin="round"/>
<path d="M237.473 54.5336V53.3584" stroke="white" stroke-width="0.5" stroke-miterlimit="10" stroke-linejoin="round"/>
<path d="M247.834 58.5004V55.4619" stroke="white" stroke-width="0.5" stroke-miterlimit="10" stroke-linejoin="round"/>
<path d="M247.834 54.5336V53.3584" stroke="white" stroke-width="0.5" stroke-miterlimit="10" stroke-linejoin="round"/>
<path d="M246.868 65.2051H238.439V73.3251H246.868V65.2051Z" stroke="white" stroke-width="0.5" stroke-miterlimit="10" stroke-linejoin="round"/>
<path d="M246.868 73.3252H238.439V81.4449H246.868V73.3252Z" stroke="white" stroke-width="0.5" stroke-miterlimit="10" stroke-linejoin="round"/>
<path d="M246.868 81.4453H238.439V89.5653H246.868V81.4453Z" stroke="white" stroke-width="0.5" stroke-miterlimit="10" stroke-linejoin="round"/>
<path d="M244.703 58.5928H240.605L238.439 65.2056H246.868L244.703 58.5928Z" stroke="white" stroke-width="0.5" stroke-miterlimit="10" stroke-linejoin="round"/>
<path d="M242.653 67.7012C241.414 67.7012 240.41 68.7048 240.41 69.9437V71.3704H244.896V69.9437C244.895 68.7048 243.891 67.7012 242.653 67.7012Z" stroke="white" stroke-width="0.5" stroke-miterlimit="10" stroke-linejoin="round"/>
<path d="M244.896 75.335H240.41V79.4349H244.896V75.335Z" stroke="white" stroke-width="0.5" stroke-miterlimit="10" stroke-linejoin="round"/>
<path d="M242.652 75.335V79.4349" stroke="white" stroke-width="0.5" stroke-miterlimit="10" stroke-linejoin="round"/>
<path d="M244.896 83.4551H240.41V87.5547H244.896V83.4551Z" stroke="white" stroke-width="0.5" stroke-miterlimit="10" stroke-linejoin="round"/>
<path d="M242.652 83.4551V87.5547" stroke="white" stroke-width="0.5" stroke-miterlimit="10" stroke-linejoin="round"/>
<path d="M242.652 71.3704V67.7012" stroke="white" stroke-width="0.5" stroke-miterlimit="10" stroke-linejoin="round"/>
<path d="M242.111 63.7101L241.176 61.5449L240.242 63.7101H242.111Z" stroke="white" stroke-width="0.5" stroke-miterlimit="10" stroke-linecap="round" stroke-linejoin="round"/>
<path d="M245.01 63.7101L244.075 61.5449L243.141 63.7101H245.01Z" stroke="white" stroke-width="0.5" stroke-miterlimit="10" stroke-linecap="round" stroke-linejoin="round"/>
<path d="M236.505 67.1777H213.254V73.3259H236.505V67.1777Z" stroke="white" stroke-width="0.5" stroke-miterlimit="10" stroke-linecap="round" stroke-linejoin="round"/>
<path d="M221.375 73.3252H220.602V93.7485H221.375V73.3252Z" stroke="white" stroke-width="0.5" stroke-miterlimit="10" stroke-linecap="round" stroke-linejoin="round"/>
<path d="M228.953 73.3252H228.18V93.7485H228.953V73.3252Z" stroke="white" stroke-width="0.5" stroke-miterlimit="10" stroke-linecap="round" stroke-linejoin="round"/>
<path d="M213.254 89.5645H220.6" stroke="white" stroke-width="0.5" stroke-miterlimit="10" stroke-linejoin="round"/>
<path d="M221.566 89.5645H228.178" stroke="white" stroke-width="0.5" stroke-miterlimit="10" stroke-linejoin="round"/>
<path d="M228.953 89.5645H236.506" stroke="white" stroke-width="0.5" stroke-miterlimit="10" stroke-linejoin="round"/>
<path d="M205.407 91.8457H204.324V93.7486H205.407V91.8457Z" stroke="white" stroke-width="0.5" stroke-miterlimit="10" stroke-linejoin="round"/>
<path d="M209.891 91.8457H208.809V93.7486H209.891V91.8457Z" stroke="white" stroke-width="0.5" stroke-miterlimit="10" stroke-linejoin="round"/>
<path d="M240.952 91.8457H239.869V93.7486H240.952V91.8457Z" stroke="white" stroke-width="0.5" stroke-miterlimit="10" stroke-linejoin="round"/>
<path d="M245.438 91.8457H244.355V93.7486H245.438V91.8457Z" stroke="white" stroke-width="0.5" stroke-miterlimit="10" stroke-linejoin="round"/>
<path d="M217.372 91.8457H216.289V93.7486H217.372V91.8457Z" stroke="white" stroke-width="0.5" stroke-miterlimit="10" stroke-linejoin="round"/>
<path d="M225.42 91.8457H224.338V93.7486H225.42V91.8457Z" stroke="white" stroke-width="0.5" stroke-miterlimit="10" stroke-linejoin="round"/>
<path d="M233.469 91.8457H232.387V93.7486H233.469V91.8457Z" stroke="white" stroke-width="0.5" stroke-miterlimit="10" stroke-linejoin="round"/>
<path d="M220.602 73.3255V70.9026L220.988 69.8457L221.375 70.8605V73.3255" stroke="white" stroke-width="0.5" stroke-miterlimit="10" stroke-linejoin="round"/>
<path d="M228.18 73.3255V70.9026L228.566 69.8457L228.953 70.8605V73.3255" stroke="white" stroke-width="0.5" stroke-miterlimit="10" stroke-linejoin="round"/>
<path d="M200.959 93.749H248.801" stroke="white" stroke-width="0.5" stroke-miterlimit="10" stroke-linejoin="round"/>
<path d="M201.926 58.5V93.7482" stroke="white" stroke-width="0.5" stroke-miterlimit="10" stroke-linejoin="round"/>
<path d="M212.287 58.5V93.7482" stroke="white" stroke-width="0.5" stroke-miterlimit="10" stroke-linejoin="round"/>
<path d="M237.473 58.5V93.7482" stroke="white" stroke-width="0.5" stroke-miterlimit="10" stroke-linejoin="round"/>
<path d="M247.834 58.5V93.7482" stroke="white" stroke-width="0.5" stroke-miterlimit="10" stroke-linejoin="round"/>
<path d="M218.126 71.9422L216.83 69.5361L215.535 71.9422H218.126Z" stroke="white" stroke-width="0.5" stroke-miterlimit="10" stroke-linejoin="round"/>
<path d="M226.175 71.9422L224.88 69.5361L223.584 71.9422H226.175Z" stroke="white" stroke-width="0.5" stroke-miterlimit="10" stroke-linejoin="round"/>
<path d="M234.223 71.9422L232.928 69.5361L231.633 71.9422H234.223Z" stroke="white" stroke-width="0.5" stroke-miterlimit="10" stroke-linejoin="round"/>
<path d="M117.402 47.4971H105.031V93.8527H117.402V47.4971Z" stroke="white" stroke-width="0.5" stroke-miterlimit="10" stroke-linejoin="round"/>
<path d="M118.049 45.6514H104.383V47.4965H118.049V45.6514Z" stroke="white" stroke-width="0.5" stroke-miterlimit="10" stroke-linejoin="round"/>
<path d="M118.049 30.7451H104.383V34.7575H118.049V30.7451Z" stroke="white" stroke-width="0.5" stroke-miterlimit="10" stroke-linejoin="round"/>
<path d="M118.049 30.7453L115.103 22.6582H107.247L104.383 30.7453V34.7573H118.049V30.7453Z" stroke="white" stroke-width="0.5" stroke-miterlimit="10" stroke-linejoin="round"/>
<path d="M108.86 13.998L107.205 18.8967V22.658H115.104V18.8967L113.401 13.998" stroke="white" stroke-width="0.5" stroke-miterlimit="10" stroke-linejoin="round"/>
<path d="M118.991 34.7568H103.443V45.6513H118.991V34.7568Z" stroke="white" stroke-width="0.5" stroke-miterlimit="10" stroke-linejoin="round"/>
<path d="M116.664 40.2039C116.664 43.2123 114.225 45.6513 111.217 45.6513C108.208 45.6513 105.77 43.2123 105.77 40.2039C105.77 37.1955 108.208 34.7568 111.217 34.7568C114.225 34.7568 116.664 37.1955 116.664 40.2039Z" stroke="white" stroke-width="0.5" stroke-miterlimit="10" stroke-linejoin="round"/>
<path d="M105.293 34.7578V45.6523" stroke="white" stroke-width="0.5" stroke-miterlimit="10" stroke-linejoin="round"/>
<path d="M117.156 34.7578V45.6523" stroke="white" stroke-width="0.5" stroke-miterlimit="10" stroke-linejoin="round"/>
<path d="M115.453 40.2048C115.453 42.544 113.557 44.4399 111.218 44.4399C108.879 44.4399 106.982 42.544 106.982 40.2048C106.982 37.8656 108.879 35.9697 111.218 35.9697C113.557 35.9697 115.453 37.866 115.453 40.2048Z" stroke="white" stroke-width="0.5" stroke-miterlimit="10" stroke-linejoin="round"/>
<path d="M111.217 36.8398V40.204H111.552H113.307" stroke="white" stroke-width="0.5" stroke-miterlimit="10" stroke-linejoin="round"/>
<path d="M103.443 34.7575V29.0527" stroke="white" stroke-width="0.5" stroke-miterlimit="10"/>
<path d="M103.443 28.4884V27.5479" stroke="white" stroke-width="0.5" stroke-miterlimit="10"/>
<path d="M118.992 34.7575V29.0527" stroke="white" stroke-width="0.5" stroke-miterlimit="10"/>
<path d="M118.992 28.4884V27.5479" stroke="white" stroke-width="0.5" stroke-miterlimit="10"/>
<path d="M108.859 13.9978C109.517 12.1286 111.133 7.94671 111.133 3.68359" stroke="white" stroke-width="0.5" stroke-miterlimit="10" stroke-linejoin="round"/>
<path d="M113.406 13.9978C112.749 12.1286 111.133 7.94671 111.133 3.68359" stroke="white" stroke-width="0.5" stroke-miterlimit="10" stroke-linejoin="round"/>
<path d="M109.379 20.3967C109.379 20.0969 109.137 19.8535 108.836 19.8535C108.537 19.8535 108.294 20.0969 108.294 20.3967H108.293V22.6588H109.38V20.3967H109.379Z" stroke="white" stroke-width="0.5" stroke-miterlimit="10" stroke-linejoin="round"/>
<path d="M111.676 20.3957C111.676 20.0959 111.433 19.8525 111.133 19.8525C110.833 19.8525 110.59 20.0959 110.59 20.3957H110.59V22.6578H111.676V20.3957Z" stroke="white" stroke-width="0.5" stroke-miterlimit="10" stroke-linejoin="round"/>
<path d="M113.975 20.3957C113.975 20.0959 113.732 19.8525 113.432 19.8525C113.132 19.8525 112.889 20.0959 112.889 20.3957V22.6578H113.975V20.3957Z" stroke="white" stroke-width="0.5" stroke-miterlimit="10" stroke-linejoin="round"/>
<path d="M107.242 32.5748C107.242 32.0391 106.808 31.6045 106.271 31.6045C105.735 31.6045 105.301 32.0391 105.301 32.5748H105.293V34.7575H107.25V32.5748H107.242Z" stroke="white" stroke-width="0.5" stroke-miterlimit="10" stroke-linejoin="round"/>
<path d="M110.539 32.5748C110.539 32.0391 110.104 31.6045 109.568 31.6045C109.032 31.6045 108.598 32.0391 108.598 32.5748H108.59V34.7575H110.547V32.5748H110.539Z" stroke="white" stroke-width="0.5" stroke-miterlimit="10" stroke-linejoin="round"/>
<path d="M113.832 32.5748C113.832 32.0391 113.397 31.6045 112.862 31.6045C112.325 31.6045 111.891 32.0391 111.891 32.5748H111.883V34.7575H113.84V32.5748H113.832Z" stroke="white" stroke-width="0.5" stroke-miterlimit="10" stroke-linejoin="round"/>
<path d="M117.129 32.5748C117.129 32.0391 116.695 31.6045 116.158 31.6045C115.623 31.6045 115.188 32.0391 115.188 32.5748H115.18V34.7575H117.137V32.5748H117.129Z" stroke="white" stroke-width="0.5" stroke-miterlimit="10" stroke-linejoin="round"/>
<path d="M106.326 48.4033V51.6915" stroke="white" stroke-width="0.5" stroke-miterlimit="10" stroke-linejoin="round"/>
<path d="M107.539 48.4033V51.6915" stroke="white" stroke-width="0.5" stroke-miterlimit="10" stroke-linejoin="round"/>
<path d="M108.75 48.4033V51.6915" stroke="white" stroke-width="0.5" stroke-miterlimit="10" stroke-linejoin="round"/>
<path d="M109.961 48.4033V51.6915" stroke="white" stroke-width="0.5" stroke-miterlimit="10" stroke-linejoin="round"/>
<path d="M111.174 48.4033V51.6915" stroke="white" stroke-width="0.5" stroke-miterlimit="10" stroke-linejoin="round"/>
<path d="M112.387 48.4033V51.6915" stroke="white" stroke-width="0.5" stroke-miterlimit="10" stroke-linejoin="round"/>
<path d="M113.598 48.4033V51.6915" stroke="white" stroke-width="0.5" stroke-miterlimit="10" stroke-linejoin="round"/>
<path d="M114.809 48.4033V51.6915" stroke="white" stroke-width="0.5" stroke-miterlimit="10" stroke-linejoin="round"/>
<path d="M116.02 48.4033V51.6915" stroke="white" stroke-width="0.5" stroke-miterlimit="10" stroke-linejoin="round"/>
<path d="M107.205 18.8965H115.104" stroke="white" stroke-width="0.5" stroke-miterlimit="10" stroke-linejoin="round"/>
<path d="M108.144 54.1406H106.932V59.7891H108.144V54.1406Z" stroke="white" stroke-width="0.5" stroke-miterlimit="10" stroke-linejoin="round"/>
<path d="M110.567 54.1406H109.355V59.7891H110.567V54.1406Z" stroke="white" stroke-width="0.5" stroke-miterlimit="10" stroke-linejoin="round"/>
<path d="M112.991 54.1406H111.779V59.7891H112.991V54.1406Z" stroke="white" stroke-width="0.5" stroke-miterlimit="10" stroke-linejoin="round"/>
<path d="M115.415 54.1406H114.203V59.7891H115.415V54.1406Z" stroke="white" stroke-width="0.5" stroke-miterlimit="10" stroke-linejoin="round"/>
<path d="M108.144 63.168H106.932V68.8164H108.144V63.168Z" stroke="white" stroke-width="0.5" stroke-miterlimit="10" stroke-linejoin="round"/>
<path d="M110.567 63.168H109.355V68.8164H110.567V63.168Z" stroke="white" stroke-width="0.5" stroke-miterlimit="10" stroke-linejoin="round"/>
<path d="M112.991 63.168H111.779V68.8164H112.991V63.168Z" stroke="white" stroke-width="0.5" stroke-miterlimit="10" stroke-linejoin="round"/>
<path d="M115.415 63.168H114.203V68.8164H115.415V63.168Z" stroke="white" stroke-width="0.5" stroke-miterlimit="10" stroke-linejoin="round"/>
<path d="M108.144 72.1953H106.932V77.8434H108.144V72.1953Z" stroke="white" stroke-width="0.5" stroke-miterlimit="10" stroke-linejoin="round"/>
<path d="M110.567 72.1953H109.355V77.8434H110.567V72.1953Z" stroke="white" stroke-width="0.5" stroke-miterlimit="10" stroke-linejoin="round"/>
<path d="M112.991 72.1953H111.779V77.8434H112.991V72.1953Z" stroke="white" stroke-width="0.5" stroke-miterlimit="10" stroke-linejoin="round"/>
<path d="M115.415 72.1953H114.203V77.8434H115.415V72.1953Z" stroke="white" stroke-width="0.5" stroke-miterlimit="10" stroke-linejoin="round"/>
<path d="M108.144 81.2236H106.932V86.8717H108.144V81.2236Z" stroke="white" stroke-width="0.5" stroke-miterlimit="10" stroke-linejoin="round"/>
<path d="M110.567 81.2236H109.355V86.8717H110.567V81.2236Z" stroke="white" stroke-width="0.5" stroke-miterlimit="10" stroke-linejoin="round"/>
<path d="M112.991 81.2236H111.779V86.8717H112.991V81.2236Z" stroke="white" stroke-width="0.5" stroke-miterlimit="10" stroke-linejoin="round"/>
<path d="M115.415 81.2236H114.203V86.8717H115.415V81.2236Z" stroke="white" stroke-width="0.5" stroke-miterlimit="10" stroke-linejoin="round"/>
<path d="M104.121 61.5127H118.051" stroke="white" stroke-width="0.5" stroke-miterlimit="10" stroke-linejoin="round"/>
<path d="M104.121 70.6748H118.051" stroke="white" stroke-width="0.5" stroke-miterlimit="10" stroke-linejoin="round"/>
<path d="M104.121 79.8369H118.051" stroke="white" stroke-width="0.5" stroke-miterlimit="10" stroke-linejoin="round"/>
<path d="M114.592 30.7453L113.137 22.6582H109.256L107.842 30.7453" stroke="white" stroke-width="0.5" stroke-miterlimit="10" stroke-linejoin="round"/>
<path d="M104.121 79.8369H118.051" stroke="white" stroke-width="0.5" stroke-miterlimit="10" stroke-linejoin="round"/>
<path d="M111.217 22.6582V30.7453" stroke="white" stroke-width="0.5" stroke-miterlimit="10" stroke-linejoin="round"/>
<path d="M111.166 4.74023L112.269 18.897" stroke="white" stroke-width="0.5" stroke-miterlimit="10" stroke-linejoin="round"/>
<path d="M111.166 4.74023L109.846 18.897" stroke="white" stroke-width="0.5" stroke-miterlimit="10" stroke-linejoin="round"/>
<path d="M111.172 2.66697V0.0556641" stroke="white" stroke-width="0.5" stroke-miterlimit="10" stroke-linejoin="round"/>
<path d="M262.638 96.551H170.715V93.8525H262.638" stroke="white" stroke-width="0.5" stroke-miterlimit="10" stroke-linejoin="round"/>
<path d="M0 96.551H151.541V93.8525H0" stroke="white" stroke-width="0.5" stroke-miterlimit="10" stroke-linejoin="round"/>
<path d="M14.656 89.2104C14.6542 90.2396 13.8187 91.0726 12.7895 91.0709C11.7603 91.0691 10.9279 90.2329 10.9297 89.2041C10.9314 88.1745 11.7775 81.0816 12.8067 81.083C13.8358 81.0851 14.6574 88.1812 14.656 89.2104Z" stroke="white" stroke-width="0.5" stroke-miterlimit="10" stroke-linejoin="round"/>
<path d="M12.7904 91.0713L12.7852 94.203" stroke="white" stroke-width="0.5" stroke-miterlimit="10" stroke-linejoin="round"/>
<path d="M20.6192 89.1689C20.6175 90.1977 19.7819 91.0308 18.7527 91.0294C17.7236 91.0276 16.8912 90.1918 16.8926 89.1626C16.894 88.1337 17.732 85.8723 18.7611 85.874C19.7907 85.8754 20.6206 88.1393 20.6192 89.1689Z" stroke="white" stroke-width="0.5" stroke-miterlimit="10" stroke-linejoin="round"/>
<path d="M18.7533 91.0293L18.748 94.161" stroke="white" stroke-width="0.5" stroke-miterlimit="10" stroke-linejoin="round"/>
</svg>
